<?xml version="1.0" encoding="utf-8"?>
<!-- Generator: Adobe Illustrator 22.1.0, SVG Export Plug-In . SVG Version: 6.00 Build 0)  -->
<svg version="1.1" xmlns="http://www.w3.org/2000/svg" xmlns:xlink="http://www.w3.org/1999/xlink" x="0px" y="0px"
	 viewBox="0 0 5187.8 3952.8" style="enable-background:new 0 0 5187.8 3952.8;" xml:space="preserve">
<style type="text/css">
	.st0{fill-rule:evenodd;clip-rule:evenodd;fill:#FFFFFF;}
	.st1{fill-rule:evenodd;clip-rule:evenodd;fill:#174D85;stroke:#2374CA;stroke-width:20;stroke-miterlimit:10;}
	.st2{fill-rule:evenodd;clip-rule:evenodd;fill:#78B7FF;stroke:#2B8FFF;stroke-width:20;stroke-miterlimit:10;}
	.st3{fill-rule:evenodd;clip-rule:evenodd;fill:#2374CA;stroke:#78B7FF;stroke-width:20;stroke-miterlimit:10;}
	.st4{fill-rule:evenodd;clip-rule:evenodd;fill:#D3D823;}
	.st5{fill-rule:evenodd;clip-rule:evenodd;fill:#AACD36;}
</style>
<g id="Capa_3">
</g>
<g id="Capa_4">
</g>
<g id="Capa_5">
	<rect x="-13.8" y="11.8" class="st0" width="5190" height="3955"/>
</g>
<g id="Capa_1">
	<g>
		<polygon class="st1" points="3868,4135.3 4681,2168.5 4520.9,2163.3 4066,1734.5 3080.3,4116.1 3868,4135.3 		"/>
		<polygon class="st1" points="4861.9,29.7 4217.9,11.8 4520.9,2163.3 5176.2,2184.6 4861.9,29.7 		"/>
		<polygon class="st1" points="3080.3,4116.1 4066,1734.5 4520.9,2163.3 4217.9,11.8 2577.7,330.7 3007.6,736.1 2021.9,3117.8 
			3080.3,4116.1 		"/>
	</g>
	<g>
		<polygon class="st2" points="3765.4,2404.7 2706.9,1406.3 1921,1385.8 2979.4,2384.2 3765.4,2404.7 		"/>
		<g>
			<polygon class="st2" points="2292.5,4043.7 2979.4,2384.2 1921,1385.8 1234.1,3045.5 2292.5,4043.7 			"/>
			<polygon class="st2" points="3080.3,4063.1 3765.4,2404.7 2979.4,2384.2 2292.5,4043.7 3080.3,4063.1 			"/>
		</g>
	</g>
	<polygon class="st3" points="2814.3,2724.2 1755.8,1725.9 970,1705.5 2028.4,2703.7 2814.3,2724.2 	"/>
	<polyline class="st3" points="1505.7,3966.5 2293.5,3985.9 2293.5,3985.9 2814.3,2724.2 2028.4,2703.7 1505.7,3966.5 	"/>
	<polyline class="st3" points="1505.7,3966.5 2028.4,2703.7 970,1705.5 447.3,2968.2 1505.7,3966.5 	"/>
	<polygon class="st4" points="1859.7,3108.8 801.3,2110.5 15.3,2089.9 1073.8,3088.4 1859.7,3108.8 	"/>
	<path class="st5" d="M718.3,3947.5l355.6-859.1l785.9,20.4c-122.8,306-245.7,612-368.5,918"/>
	<path class="st5" d="M21.2,4026.8c73.3,98.3,237,22.4,553.9,2.6"/>
	<path class="st5" d="M575,4029.4c68.9-4.3,145.1-6,229.1-2.6c244.8,9.8,306.2,52.1,372,0c101.6-80.5,127.8-318.5-102.3-938.4
		L15.3,2089.9c2,376.1,3.9,752.2,5.9,1128.4c11,120,20.3,302.9,0,526.1c-16.4,181.1-38,231.5,0,282.4"/>
	<line class="st5" x1="1284.1" y1="4112.4" x2="1284.1" y2="4112.4"/>
	<path class="st5" d="M1272.1,4026.8c4.6,28.4,9.3,56.9,13.9,85.3"/>
	<path class="st5" d="M1904.2,4837.8"/>
</g>
<g id="Capa_2">
</g>
</svg>
