<svg xmlns="http://www.w3.org/2000/svg" viewBox="0 0 1653.61 2325.59"><defs><style>.cls-1{fill:#5c9bd5;}.cls-2{fill:#a0bf4b;}.cls-3{fill:#5a9ad5;}</style></defs><title>Recurso 1</title><g id="Capa_2" data-name="Capa 2"><g id="Layer_1" data-name="Layer 1"><path class="cls-1" d="M351.89,1401H138.69v78.65H332.46L300.05,1599.2H138.69v93.57H366.16l-32.41,119.57H0V1281.42H319.5Z"/><path class="cls-1" d="M710.28,1401H593.62q-25.92,0-38.55,3.26c-8.42,2.16-12.64,6.91-12.64,14.3a28.58,28.58,0,0,0,4.86,15.91,135.23,135.23,0,0,0,14.59,17.85l3.23,3.26,96.56,107.21q31.74,35.1,48.61,63.36t16.85,63.4a137,137,0,0,1-6.49,40.93q-6.5,20.82-22.35,39.66t-44.4,30.53q-28.53,11.7-69.34,11.68H423.18l-32.39-119.57H516.51q25.9,0,38.56-3.23c8.43-2.17,12.64-6.92,12.64-14.31a28,28,0,0,0-4.87-16.22,151.71,151.71,0,0,0-14.58-17.58l-3.24-3.24-94-106.59q-32.43-37.06-48.6-64.65t-16.2-62.7a136.81,136.81,0,0,1,6.47-40.94q6.46-20.82,22.37-39.66t44.39-30.53q28.5-11.7,69.35-11.7h149Z"/><path class="cls-2" d="M909.65,1579.76q-38.89-5.9-88.12-14.3-20.1,33.11-42.79,73.09t-45.68,82.86q-23,42.9-45,86.12t-40.52,83.18q-18.46,39.94-32.39,74.4t-20.43,59.14q-3.23,12.35-1,22.75a87.51,87.51,0,0,0,5.51,17.52A9.36,9.36,0,0,1,598,2074a14.92,14.92,0,0,1-7.79,5.48,9.86,9.86,0,0,1-8.75-1.59c-2.8-1.94-4.21-6-4.21-12q-.65-21.45,10.7-58.85T618,1923.5q18.81-46.11,42.78-97.46t48.61-100.1q24.6-48.74,48-91.6t40.18-72.81q-46-7.12-96.24-14.26t-99.14-12q-49-4.9-93.66-6.85t-79.07,1.95a230.66,230.66,0,0,0-30.45,5.52,104,104,0,0,0-31.43,13,56.83,56.83,0,0,0-21.06,23q-7.14,14.32,1.94,35.75A306.42,306.42,0,0,0,376,1660.32a482.34,482.34,0,0,0,32.08,44.83,115.57,115.57,0,0,1,7.76,11.36c1.3,2.42,1.52,3.69.65,3.93s-2.5-.42-4.85-2a42,42,0,0,1-7.46-6.17,457.58,457.58,0,0,1-38.25-42.9,318.58,318.58,0,0,1-28.49-44.18q-12.35-22-6.17-40.93A74.77,74.77,0,0,1,353,1551.48a140.13,140.13,0,0,1,35.33-23.08q19.74-9.06,35.31-12.33,25.92-5.19,70-4.55t96.89,4.55q52.8,3.9,110.17,9.75T810.5,1537.5c3.46-4.77,6.38-9,8.75-12.69a54.72,54.72,0,0,1,6.81-8.74c1.72-1.75,2.26-3.6,1.61-5.53s-1.84-2.73-3.56-2.28q-3.25.66-7.78,1.63a36.36,36.36,0,0,0-8.42,2.9c-4.76,1.75-7.13,1.53-7.13-.62s1.94-4.36,5.83-6.51a212.93,212.93,0,0,1,21.4-15.27c9.06-5.84,16.84-9.44,23.33-10.73,6-.87,10.47,1.09,13.28,5.86s2.47,9.77-1,14.94q-11.67,18.86-26.58,39.66,44.71,5.2,81,8.42t58.34,3.27c7.33,0,12.2-2,14.57-5.89a15.34,15.34,0,0,0,2.27-11.68q-1.29-6.49-2.27-11a60.09,60.09,0,0,0-4.19-11.7c-3.47-8.7-4-13.67-1.65-15s5.94,2,10.71,9.73q1.95,3.29,4.85,9.12c1.93,3.88,3.79,8.13,5.52,12.67a47,47,0,0,1,2.92,14.62,34.76,34.76,0,0,1-2.27,14.3,57.31,57.31,0,0,0-5.52,8.78,35.14,35.14,0,0,1-8.1,10c-4.31,3.46-8.2,6.42-11.65,8.78s-7.57,3.12-12.31,2.3Q948.52,1585.61,909.65,1579.76Z"/><path class="cls-2" d="M699.69,2037.58a30.37,30.37,0,0,1-16.53-12.69,17.64,17.64,0,0,1-2.92-9.75q1.31-53.92,86.84-159.21c1.72-3,1.3-5-1.3-5.87a107.42,107.42,0,0,1-11.65-7.47q-5.85-4.23-5.85-8.09a10.64,10.64,0,0,1,2-5.18c1.3-2.19,6.91-3.52,16.85-3.93,16-.4,24.2-.64,24.62-.64q2.59,0,7.14-2.62,14.24-13.62,28.51-14.3,10.36-.63,29.16,11.7c.86.45,1.61.89,2.27,1.29a14.93,14.93,0,0,0,2.27,1.31c10,.44,21.92.89,36,1.31s30.12.84,48.27,1.31c6.49.87,9.71,1.71,9.71,2.58,0,2.62-3.22,3.9-9.71,3.9-13.41,0-22,2.58-25.92,7.82a3.18,3.18,0,0,0,0,3.86c.43,1.31.85,2.62,1.29,3.92a10.84,10.84,0,0,1,.65,3.23q-1.94,24.72-21.06,53t-58,61.4q-75.85,65.67-132.86,74.07A22.58,22.58,0,0,1,699.69,2037.58Zm-3.25-19.22c0,10.44,6.91,14.32,20.75,11.72q44.05-7.12,105.63-63.68,64.8-57.83,74.53-105.26,4.53-19.48-24.63-22.76a120.21,120.21,0,0,0-29.17-.32,103.88,103.88,0,0,0-25.27,6.16c-.87-.42-4.53,1.51-11,5.84q-69.33,64.39-106.92,154A29.73,29.73,0,0,0,696.44,2018.36Z"/><path class="cls-2" d="M1148.14,1867.63q-11,19.45-21.08,40t-17.81,40q-7.77,19.48-9.71,32.49c-1.3,7.79-1.4,13.43-.34,16.87s2.7,5.58,4.87,6.21a15.27,15.27,0,0,0,8.1-.33c3.23-.86,6.38-1.73,9.41-2.61a84.71,84.71,0,0,0,11-4.21,70.38,70.38,0,0,0,10.4-5.56c6.88-4.74,10.68-5.28,11.31-1.59s-1.61,7.87-6.79,12.64a80.76,80.76,0,0,1-15.87,13.34,99.48,99.48,0,0,1-17.82,9.43c-2.6.86-5.84.46-9.73-1.32a35.75,35.75,0,0,1-10.69-7.47,51.56,51.56,0,0,1-8.42-11,24.94,24.94,0,0,1-3.57-12.66,123.27,123.27,0,0,1,2.92-26,222,222,0,0,1,7.44-26.68c3-8.64,6.39-17.22,10-25.64s7-16.37,10-23.75q3.9-9.69,0-15.93t-15.54,5.56q-15.57,15.56-40.5,39.32t-50.24,46.8q-25.26,23.05-47,40.91t-32.09,21.13c-11.66,3.9-21.16,2-28.5-5.52s-10.59-16.8-9.72-27.64c.86-10,3.56-21.42,8.09-34.44a299.3,299.3,0,0,1,17.52-40q10.65-20.48,23.33-41.55t25.59-40c8.63-12.58,16.74-23.92,24.29-34.12s14.17-18.52,19.78-25a17.64,17.64,0,0,1,8.75-5.52,15.91,15.91,0,0,1,9.38-.32,6.46,6.46,0,0,1,4.55,5.54c.41,2.82-1.29,6.81-5.18,12q-14.92,18.22-31.44,42.22t-31.43,48.74q-14.91,24.73-26.9,48.1c-8,15.58-13.52,29.26-16.53,40.92q-7.77,26.7.34,34.14t24.29-1.61c16.86-10.44,34.68-24.15,53.47-41.29s37.38-35,55.73-53.59,36-36.8,52.82-54.59,31.75-32.5,44.71-44.21c3.89-3.86,7.34-5.19,10.38-3.86s5.39,3.77,7.12,7.43a31.27,31.27,0,0,1,2.91,11.72q.35,6.14-1.61,9.43Q1159.14,1848.12,1148.14,1867.63Z"/><path class="cls-2" d="M1153.32,2036a7.08,7.08,0,0,1,.63-6.52q62.86-97.49,85.56-150.11,3.88-9.75,3.9-16.23c0-.89-.67-3.27-2-7.17a8.18,8.18,0,0,1,0-4.56q7.79-2.59,48.62-27.29a2.59,2.59,0,0,1,2.58-1.28q3.9,0,5.2,3.24c1.71,2.58,1.5,5-.66,7.13q-20.75,28.61-35.3,49.7t-21.72,35.47a15.22,15.22,0,0,0-2,6.47c0,2.19,2.37,2.39,7.13.66,3.9-1.73,6.5-3.44,7.79-5.23q25.24-30.48,65.43-63,41.49-33.74,64.83-43.5c13.38-.44,23.32.83,29.8,3.89a1.81,1.81,0,0,1,.64,1.29c0,1.31-.76,3.12-2.25,5.52a38,38,0,0,1-5.2,6.5,22.4,22.4,0,0,1-6.16,4.53c-2.15,1.11-3.88,1.23-5.16.32-8.66-3.86-20.32-2-35,5.89q-95.94,53.25-171.07,176.71c0,1.33-1.73,2.82-5.21,4.57-3.45,1.32-7.35,3-11.65,4.88a134,134,0,0,0-14.92,8.15C1155.05,2038.52,1153.75,2038.52,1153.32,2036Z"/><path class="cls-2" d="M1555.13,1913.77A751.52,751.52,0,0,1,1653,1889.7l.64.67a527.57,527.57,0,0,0-93,28.28q-47.64,19.18-99.47,49.06c5.6,7.37,9.62,13.51,12,18.51s3.57,9,3.57,12q0,18.18-42.78,36.38-36.29,16.25-59,16.25a41.86,41.86,0,0,1-13.6-2q-9.09,1.29-14.59,2.63t-8.75,0q-8.41-.69-3.9-8.45,11-13.69,87.49-66.95l-20.72-27.94a78.71,78.71,0,0,1-10.72-17.54,70.83,70.83,0,0,1-4.85-17.56q-5.19-43.52,88.13-98.13,46.68-27.92,87.84-41.27t77.42-12.67c2.58,0,5,1.31,7.13,3.91q2.6,5.86,0,8.44c-3,4.35-7.89,8.66-14.58,13s-11.56,6.06-14.58,5.18a181.67,181.67,0,0,0-25.26-7.13,98.29,98.29,0,0,0-17.52-1.93c-2.58,0-5.08.09-7.45.32s-4.64.54-6.81,1q-36.92,9.12-85.52,43.53-61.57,42.3-57,74.09c1.3,8.66,6,19.74,14.26,33.13,9.06,13,16.39,21,22,24.06Q1505.86,1929.33,1555.13,1913.77Zm-185.37,130q11.67,2.6,39.54-7.15,13-5.19,21.72-9.1c5.84-2.6,9.81-5.6,12-9.13a11,11,0,0,0,2.62-7.11c0-7-5-14.94-14.9-24-6.93,4.3-17.51,11.68-31.77,22q-12.95,9.15-20.73,15.63t-11,11.7C1363.72,2040.5,1364.58,2042.87,1369.76,2043.74Z"/><path class="cls-1" d="M279.49,590.15c69.23-218.09,273.57-376.58,514.27-376.58a536.2,536.2,0,0,1,304.32,94.34c40.47-42,72.71-83.16,97.83-121.43A691.42,691.42,0,0,0,793.76,58C476.19,58,207.66,272.12,125,563.6L194.71,577Q237.27,585.18,279.49,590.15Z"/><path class="cls-3" d="M1366.55,0c1.58,61.57-31.32,152.28-95.91,248a946.13,946.13,0,0,1-98.16,121.49C719.68,759.83,217.88,696.87,105.8,654.15a699.44,699.44,0,0,0-7,98.87,692,692,0,0,0,36.57,222.37c85,6.69,166.54-1.36,166.54-1.36C696,947.94,1068.54,750.39,1252.49,469.62c32.55-49.67,59.25-101.93,79-156.33C1367.39,214.82,1380.91,109.42,1366.55,0Z"/><path class="cls-2" d="M311.24,1252.63c229.88-24.55,632.88-145.11,943.85-550.52a1053.1,1053.1,0,0,0,79.38-154.59c9.25-22.51,17.25-44.63,24.11-66.06a927.05,927.05,0,0,1-57.82,87.25c-15.58,20.87-32.1,41.42-49.78,61.65-210.39,240.73-544.86,401.27-896.06,435.83-45.18,4.45-90.61,6.93-136.12,7.09l-41.65.16A699.57,699.57,0,0,0,311.24,1252.63Z"/><path class="cls-2" d="M1422.48,457.13a750.22,750.22,0,0,1-6.89,147.76c-9.24,63.76-26.48,126.72-50.68,188.21-104.38,265.15-339.37,502.29-633,652.12,20.38,1.77,41,2.82,61.82,2.82,383.22,0,695-311.8,695-695A690.67,690.67,0,0,0,1422.48,457.13Z"/><path class="cls-1" d="M606.85,2202.59v46.24H595.14v-46.24H579v-11.72H623v11.72Z"/><path class="cls-1" d="M627.93,2248.83v-58h28.93c6.27,0,10.91,1.23,13.88,3.79s4.46,6.46,4.46,11.82a19,19,0,0,1-2.1,9,12.64,12.64,0,0,1-5.75,5.64,9.65,9.65,0,0,1,4.39,4c.84,1.59,1.32,4.37,1.48,8.35,0,.39,0,.93,0,1.6q.38,10.82,2.48,13.77H662.52a8.3,8.3,0,0,1-.72-2.09,12.41,12.41,0,0,1-.24-2.42v-3.9c0-5.36-.55-8.81-1.66-10.5s-3.29-2.45-6.53-2.45H639.72v21.36Zm11.79-33.25h13.35c3.51,0,6-.52,7.43-1.59s2.15-2.8,2.15-5.2-.67-4-2-4.95-4-1.41-8.08-1.41H639.72Z"/><path class="cls-1" d="M676.14,2248.83l22.32-58h11.32l21.47,58H718.13l-4.29-12.26H693.12l-4.25,12.26Zm21-24H709.6l-6.34-17.92Z"/><path class="cls-1" d="M732.25,2228.75h12.08v.54a8.66,8.66,0,0,0,3.5,7.48c2.33,1.71,5.72,2.58,10.18,2.58,3.44,0,6.1-.63,8-1.86a6,6,0,0,0,2.81-5.27,4.87,4.87,0,0,0-1.84-4.21c-1.22-1-3.69-1.61-7.4-2.08l-8.37-1q-9.17-1.17-13.49-5.15c-2.86-2.64-4.3-6.32-4.3-11.16a17.42,17.42,0,0,1,6.23-13.9c4.14-3.58,9.62-5.39,16.46-5.39,7.34,0,13.08,1.71,17.24,5.07s6.22,8,6.22,13.84v.44H767.81a8.63,8.63,0,0,0-3.3-6.48c-1.9-1.45-4.67-2.16-8.26-2.16-3.29,0-5.87.57-7.69,1.73a5.57,5.57,0,0,0-2.74,4.94,4.31,4.31,0,0,0,1.61,3.72c1.07.77,3.7,1.48,7.9,2l8.77,1.13c6,.81,10.45,2.57,13.28,5.33s4.25,6.69,4.25,11.68c0,6.43-2.12,11.38-6.38,14.71s-10.48,5-18.67,5c-7.81,0-13.82-1.77-18-5.27s-6.32-8.58-6.32-15.09Z"/><path class="cls-1" d="M790.23,2248.83v-58h27.88c5.47,0,9.73,1.73,12.82,5.21s4.59,8.34,4.59,14.5-1.54,11-4.59,14.53-7.35,5.17-12.82,5.17H802v18.55ZM802,2219h10.83c4,0,6.75-.64,8.33-1.85s2.39-3.32,2.39-6.26-.69-5.12-2.06-6.31-4-1.83-7.9-1.83H802Z"/><path class="cls-1" d="M840,2219.87q0-13.95,7.67-22.23t20.57-8.32q12.9,0,20.52,8.32t7.65,22.23q0,13.9-7.65,22.2t-20.52,8.27q-12.88,0-20.57-8.27T840,2219.87Zm28.24,18.53a13.64,13.64,0,0,0,11.13-4.94c2.7-3.29,4.05-7.85,4.05-13.59s-1.35-10.35-4.05-13.66-6.42-4.95-11.13-4.95a13.68,13.68,0,0,0-11.15,4.95c-2.73,3.33-4.09,7.9-4.09,13.66s1.35,10.3,4.07,13.59S863.53,2238.4,868.27,2238.4Z"/><path class="cls-1" d="M904.53,2248.83v-58h28.92c6.29,0,10.92,1.23,13.89,3.79s4.46,6.46,4.46,11.82a18.86,18.86,0,0,1-2.1,9,12.71,12.71,0,0,1-5.74,5.64,9.54,9.54,0,0,1,4.37,4c.85,1.59,1.33,4.37,1.49,8.35,0,.39,0,.93.06,1.6q.38,10.82,2.47,13.77H939.12a8.29,8.29,0,0,1-.71-2.09,11.67,11.67,0,0,1-.25-2.42v-3.9c0-5.36-.54-8.81-1.66-10.5s-3.31-2.45-6.54-2.45H916.32v21.36Zm11.79-33.25h13.36c3.5,0,6-.52,7.41-1.59s2.16-2.8,2.16-5.2-.66-4-2-4.95-4-1.41-8.1-1.41H916.32Z"/><path class="cls-1" d="M982.55,2202.59v46.24H970.82v-46.24H954.71v-11.72h43.93v11.72Z"/><path class="cls-1" d="M1003.61,2248.83v-58h41.77v11.72h-30v9.77h26.72v11.8h-26.72v12.47h30v12.2Z"/><path class="cls-1" d="M1099.09,2202.59v46.24h-11.71v-46.24h-16.1v-11.72h43.93v11.72Z"/><path class="cls-1" d="M1131.91,2190.87V2222c0,5.7,1,9.84,2.94,12.44s5.09,3.87,9.38,3.87a14,14,0,0,0,6-1.17,10.12,10.12,0,0,0,4.1-3.57,12.14,12.14,0,0,0,1.77-4.18,37.89,37.89,0,0,0,.52-7.39v-31.14h11.71v32.69q0,13.14-6.11,20t-18,6.8q-11.85,0-18-6.8t-6.11-20v-32.69Z"/><path class="cls-1" d="M1179,2248.83v-58h28.93c6.28,0,10.92,1.23,13.88,3.79s4.46,6.46,4.46,11.82a19,19,0,0,1-2.09,9,12.71,12.71,0,0,1-5.76,5.64,9.7,9.7,0,0,1,4.39,4q1.26,2.38,1.48,8.35c0,.39,0,.93.06,1.6.27,7.21,1.09,11.8,2.49,13.77h-13.25a9.17,9.17,0,0,1-.71-2.09,12.41,12.41,0,0,1-.24-2.42v-3.9c0-5.36-.55-8.81-1.66-10.5s-3.31-2.45-6.53-2.45h-13.65v21.36Zm11.8-33.25h13.35c3.52,0,6-.52,7.42-1.59s2.16-2.8,2.16-5.2-.66-4-2-4.95-4-1.41-8.06-1.41h-12.85Z"/><path class="cls-1" d="M1234.75,2185l4.8-12.41h13.84L1243,2185Zm.12,63.84v-58h11.82v58Z"/><path class="cls-1" d="M1255.42,2228.75h12.07v.54a8.63,8.63,0,0,0,3.49,7.48c2.34,1.71,5.72,2.58,10.19,2.58,3.44,0,6.09-.63,8-1.86a6,6,0,0,0,2.79-5.27,4.91,4.91,0,0,0-1.82-4.21c-1.22-1-3.69-1.61-7.4-2.08l-8.39-1q-9.15-1.17-13.48-5.15c-2.86-2.64-4.3-6.32-4.3-11.16a17.42,17.42,0,0,1,6.23-13.9c4.13-3.58,9.63-5.39,16.47-5.39,7.34,0,13.07,1.71,17.23,5.07s6.23,8,6.23,13.84v.44H1291a8.66,8.66,0,0,0-3.3-6.48c-1.92-1.45-4.68-2.16-8.24-2.16-3.32,0-5.88.57-7.71,1.73a5.55,5.55,0,0,0-2.74,4.94,4.3,4.3,0,0,0,1.6,3.72c1.08.77,3.71,1.48,7.91,2l8.75,1.13c6,.81,10.47,2.57,13.29,5.33s4.25,6.69,4.25,11.68c0,6.43-2.13,11.38-6.39,14.71s-10.46,5-18.67,5c-7.78,0-13.8-1.77-18-5.27s-6.29-8.58-6.29-15.09Z"/><path class="cls-1" d="M1335.59,2202.59v46.24h-11.73v-46.24h-16.09v-11.72h43.92v11.72Z"/><path class="cls-1" d="M1356.78,2248.83v-58h11.81v58Z"/><path class="cls-1" d="M1432.11,2226.38q-1,10.9-8.34,17.42t-18.79,6.54q-12.92,0-20.55-8.27t-7.68-22.2q0-13.95,7.68-22.23t20.55-8.32c7.5,0,13.71,2.07,18.65,6.26a23.42,23.42,0,0,1,8.27,16.4H1419a13.26,13.26,0,0,0-4.72-8c-2.37-1.81-5.48-2.68-9.34-2.68a13.69,13.69,0,0,0-11.15,4.95c-2.74,3.33-4.09,7.9-4.09,13.66s1.35,10.3,4.07,13.59a13.72,13.72,0,0,0,11.17,4.94c4.1,0,7.4-1.07,9.9-3.18a12.81,12.81,0,0,0,4.3-8.84Z"/><path class="cls-1" d="M1437.44,2219.87c0-9.3,2.58-16.7,7.68-22.23s12-8.32,20.56-8.32,15.43,2.78,20.53,8.32,7.65,12.93,7.65,22.23-2.54,16.66-7.65,22.2-11.93,8.27-20.53,8.27-15.45-2.76-20.56-8.27S1437.44,2229.14,1437.44,2219.87Zm28.24,18.53a13.7,13.7,0,0,0,11.14-4.94c2.7-3.29,4-7.85,4-13.59s-1.33-10.35-4-13.66a13.62,13.62,0,0,0-11.14-4.95c-4.71,0-8.44,1.65-11.14,4.95s-4.1,7.9-4.1,13.66,1.34,10.3,4.06,13.59A13.74,13.74,0,0,0,1465.68,2238.4Z"/><path class="cls-1" d="M739.62,2324.06V2299.3l-20.57-33.22h15l11.73,20.74,11.62-20.74h14.94l-21,33.22v24.76Z"/><path class="cls-1" d="M819.22,2266.08a53.78,53.78,0,0,1,11.44.88,19.43,19.43,0,0,1,6.79,2.94,22.36,22.36,0,0,1,8.06,10,41.75,41.75,0,0,1,0,30.27,22.75,22.75,0,0,1-8.06,10.11,19.68,19.68,0,0,1-6.79,2.86,54.31,54.31,0,0,1-11.44.89H798v-58Zm-8.88,11.67V2312h9.12c5.4,0,9.49-1.46,12.29-4.41s4.21-7.17,4.21-12.79-1.4-9.84-4.19-12.79-6.89-4.29-12.31-4.29Z"/><path class="cls-1" d="M856.3,2324.06v-58h41.78v11.73h-30v9.79h26.7v11.81h-26.7v12.46h30v12.19Z"/><path class="cls-1" d="M929.58,2324.06v-58h27.88c5.46,0,9.74,1.77,12.82,5.23s4.58,8.36,4.58,14.54-1.52,11-4.58,14.48-7.36,5.2-12.82,5.2H941.39v18.53Zm11.81-29.89H952.2c4,0,6.75-.6,8.35-1.85s2.37-3.32,2.37-6.25-.67-5.09-2.07-6.32-4-1.79-7.88-1.79H941.39Z"/><path class="cls-1" d="M981.93,2324.06v-58h41.8v11.73h-30v9.79h26.71v11.81H993.74v12.46h30v12.19Z"/><path class="cls-1" d="M1031.4,2324.06v-58h28.93q9.43,0,13.88,3.82c3,2.53,4.46,6.46,4.46,11.78a18.69,18.69,0,0,1-2.1,9,12.12,12.12,0,0,1-5.73,5.64,10,10,0,0,1,4.38,4c.83,1.57,1.32,4.37,1.47,8.38,0,.36,0,.93.07,1.59.24,7.19,1.06,11.76,2.47,13.76H1066a8.46,8.46,0,0,1-.73-2.09,11.55,11.55,0,0,1-.25-2.4v-4q0-8-1.65-10.43c-1.13-1.69-3.3-2.48-6.56-2.48h-13.63v21.35Zm11.79-33.23h13.35c3.51,0,6-.55,7.43-1.62s2.16-2.79,2.16-5.21-.67-4-2-4.93-4-1.43-8.07-1.43h-12.85Z"/><path class="cls-1" d="M1085.22,2304h12.06v.54a8.6,8.6,0,0,0,3.49,7.43q3.51,2.61,10.19,2.6c3.45,0,6.1-.6,8-1.87a6,6,0,0,0,2.79-5.26,4.91,4.91,0,0,0-1.83-4.23c-1.22-.9-3.7-1.57-7.39-2l-8.39-1c-6.1-.74-10.61-2.5-13.47-5.12s-4.31-6.36-4.31-11.17a17.46,17.46,0,0,1,6.23-13.9c4.13-3.61,9.64-5.38,16.46-5.38,7.33,0,13.08,1.67,17.24,5.06s6.22,8,6.22,13.81v.49h-11.71a8.66,8.66,0,0,0-3.3-6.49c-1.94-1.46-4.68-2.17-8.26-2.17a14.71,14.71,0,0,0-7.72,1.73,5.48,5.48,0,0,0-2.71,4.91,4.37,4.37,0,0,0,1.6,3.75c1.08.77,3.7,1.47,7.9,2l8.77,1.17q9,1.22,13.28,5.34t4.25,11.68q0,9.63-6.39,14.73c-4.26,3.32-10.47,5-18.66,5-7.79,0-13.81-1.77-18-5.28s-6.3-8.56-6.3-15.08Z"/><path class="cls-1" d="M1140.64,2295.08q0-13.87,7.67-22.2t20.57-8.32q12.88,0,20.53,8.32t7.63,22.2q0,13.92-7.63,22.21t-20.53,8.3q-12.9,0-20.57-8.3T1140.64,2295.08Zm28.24,18.55a13.63,13.63,0,0,0,11.12-5c2.71-3.3,4-7.81,4-13.59s-1.33-10.36-4-13.66a15,15,0,0,0-22.29,0c-2.73,3.3-4.09,7.86-4.09,13.62s1.36,10.29,4.07,13.59A13.73,13.73,0,0,0,1168.88,2313.63Z"/><path class="cls-1" d="M1205.12,2324.06v-58h14.48l23.52,40.88v-40.88h11.34v58h-14.32l-23.76-41.29v41.29Z"/><path class="cls-1" d="M1257.45,2324.06l22.31-58h11.33l21.46,58h-13.11l-4.3-12.29h-20.73l-4.24,12.29Zm21-24h12.46l-6.34-17.9Z"/><path class="cls-1" d="M1315.54,2324.06v-58h11.81v45.79h24.21v12.19Z"/><path class="cls-1" d="M692.05,2087.08H679.54v-28.51h45.59v86.66H698.24a84.94,84.94,0,0,1-30.06-5.36,76.76,76.76,0,0,1-25.27-15.41A71.59,71.59,0,0,1,625.67,2100a78.66,78.66,0,0,1-6.25-31.84,64,64,0,0,1,2.71-18.93,44,44,0,0,1,8.64-15.79,39.79,39.79,0,0,1,15.78-10.92c6.52-2.64,14.34-4,23.41-4h45.89l7.74,28.52H677.68a52,52,0,0,0-7.57.51,24.32,24.32,0,0,0-7.5,2.79,17.73,17.73,0,0,0-6.63,7.34c-1.82,3.32-2.71,7.79-2.71,13.35a49.29,49.29,0,0,0,11,31,41.16,41.16,0,0,0,12.45,10.29,36.28,36.28,0,0,0,15.37,4.35Z"/><path class="cls-1" d="M945.66,2018.6a51.93,51.93,0,0,1,18.17,2.84,31.54,31.54,0,0,1,12,7.78,28.77,28.77,0,0,1,6.31,10.53,37.07,37.07,0,0,1,1.87,11.54,35.83,35.83,0,0,1-7.27,22.3A75.82,75.82,0,0,1,957,2091.27q13.6,27.17,36.62,54l-27.66,19.21A256.23,256.23,0,0,1,939.4,2128a387.31,387.31,0,0,1-22-42.46c.93-.74,2.78-2.07,5.57-4.05,3.29-2.25,6.17-4.35,8.65-6.26a77.29,77.29,0,0,0,7.19-6.28,35.3,35.3,0,0,0,5.64-7,13.3,13.3,0,0,0,2.16-7c0-3.39-1.38-5.58-4.1-6.51s-6.66-1.37-11.81-1.37H877l7.73-28.52ZM916.3,2145.23H883.22V2051H916.3Z"/><path class="cls-1" d="M1165.51,2140.32a63.07,63.07,0,0,1-18.15-20,100.78,100.78,0,0,1-10.9-26.67,111.56,111.56,0,0,1-3.63-27.53,64.81,64.81,0,0,1,2.92-19.91,40.69,40.69,0,0,1,9.51-15.86q6.56-6.84,17.79-10.7t27.26-3.88q16.08,0,27.28,3.88t17.85,10.7a39.53,39.53,0,0,1,9.51,15.86,66.7,66.7,0,0,1,2.86,19.91,111.2,111.2,0,0,1-3.64,27.45,104,104,0,0,1-10.89,26.75,62.25,62.25,0,0,1-18.16,20.07,42.37,42.37,0,0,1-24.81,7.58A41.92,41.92,0,0,1,1165.51,2140.32Zm33.54-26.74a39.83,39.83,0,0,0,7.42-11.91,88,88,0,0,0,5-16.44,86.8,86.8,0,0,0,1.86-17.48c0-8.3-1.78-14.08-5.33-17.38s-9.46-5-17.7-5-14.14,1.67-17.71,5-5.31,9.08-5.31,17.38a89.39,89.39,0,0,0,1.78,17.44,76.44,76.44,0,0,0,5.09,16.37,42.34,42.34,0,0,0,7.51,12c2.77,3,5.64,4.5,8.64,4.5S1196.21,2116.59,1199.05,2113.58Z"/><path class="cls-1" d="M1435.57,2145.23H1402.5V2051h33.07v33.49a83.06,83.06,0,0,0,8.82-5.11,84.78,84.78,0,0,0,8.74-6.59,37.53,37.53,0,0,0,7-7.81,14.72,14.72,0,0,0,2.78-8.24,9.25,9.25,0,0,0-1.37-5.26,7.85,7.85,0,0,0-3.73-2.9,25.47,25.47,0,0,0-4.77-1.12,47.56,47.56,0,0,0-5.88-.31h-50.85l7.73-28.52h51.32a58.88,58.88,0,0,1,19.32,2.84,34.35,34.35,0,0,1,12.88,7.82,30.32,30.32,0,0,1,7,11.12,38.79,38.79,0,0,1,2.18,13.09,43.65,43.65,0,0,1-3.1,15.73,57.5,57.5,0,0,1-10.13,16.23c-4.7,5.58-11,11-18.94,16.4a173.38,173.38,0,0,1-29.06,15.33Z"/></g></g></svg>