<?xml version="1.0" encoding="utf-8"?>
<!-- Generator: Adobe Illustrator 22.1.0, SVG Export Plug-In . SVG Version: 6.00 Build 0)  -->
<svg version="1.1" id="Capa_1" xmlns="http://www.w3.org/2000/svg" xmlns:xlink="http://www.w3.org/1999/xlink" x="0px" y="0px"
	 viewBox="0 0 273.2 141.9" style="enable-background:new 0 0 273.2 141.9;" xml:space="preserve">
<style type="text/css">
	.st0{fill:#004E87;}
	.st1{clip-path:url(#SVGID_2_);}
	.st2{fill:#FFFFFF;}
	.st3{fill:#054E87;}
	.st4{font-family:'Roboto-Regular';}
	.st5{font-size:16px;}
</style>
<g>
	<g>
		<path class="st0" d="M45.9,59.6c-2.4,0-4.5,1.6-5.3,3.7H21.3c-0.8-2.2-2.8-3.7-5.3-3.7c-3.1,0-5.6,2.5-5.6,5.6
			c0,3.1,2.5,5.6,5.6,5.6c2.4,0,4.5-1.6,5.3-3.7h19.4c0.8,2.2,2.8,3.7,5.3,3.7c3.1,0,5.6-2.5,5.6-5.6C51.5,62.2,49,59.6,45.9,59.6z
			 M16,67.1c-1,0-1.9-0.8-1.9-1.9c0-1,0.8-1.9,1.9-1.9c1,0,1.9,0.8,1.9,1.9C17.9,66.3,17,67.1,16,67.1z M45.9,67.1
			c-1,0-1.9-0.8-1.9-1.9c0-1,0.8-1.9,1.9-1.9c1,0,1.9,0.8,1.9,1.9C47.8,66.3,47,67.1,45.9,67.1z"/>
		<path class="st0" d="M53.4,76.5c0,3.1,2.5,5.6,5.6,5.6c3.1,0,5.6-2.5,5.6-5.6c0-2.4-1.6-4.5-3.7-5.3V59.6c0-0.5-0.2-1-0.5-1.3
			l-7.5-7.5c-0.3-0.4-0.8-0.5-1.3-0.5h-6c-0.8-2.2-2.8-3.7-5.3-3.7c-3.1,0-5.6,2.5-5.6,5.6s2.5,5.6,5.6,5.6c2.4,0,4.5-1.6,5.3-3.7
			h5.2l6.4,6.4v10.8C55,72,53.4,74,53.4,76.5z M40.3,54c-1,0-1.9-0.8-1.9-1.9c0-1,0.8-1.9,1.9-1.9c1,0,1.9,0.8,1.9,1.9
			C42.2,53.2,41.3,54,40.3,54z M59,78.3c-1,0-1.9-0.8-1.9-1.9c0-1,0.8-1.9,1.9-1.9c1,0,1.9,0.8,1.9,1.9C60.9,77.5,60,78.3,59,78.3z"
			/>
		<path class="st0" d="M64.6,29.7c-3.1,0-5.6,2.5-5.6,5.6c0,3.1,2.5,5.6,5.6,5.6c0.9,0,1.7-0.2,2.4-0.6l18.2,18.2v17.9
			c0,0.5,0.2,1,0.5,1.3l3.8,3.8c-0.4,0.7-0.6,1.5-0.6,2.4c0,3.1,2.5,5.6,5.6,5.6c3.1,0,5.6-2.5,5.6-5.6c0-3.1-2.5-5.6-5.6-5.6
			c-0.9,0-1.7,0.2-2.4,0.6l-3.2-3.2V57.8c0-0.5-0.2-1-0.5-1.3L69.7,37.7c0.4-0.7,0.6-1.5,0.6-2.4C70.2,32.2,67.7,29.7,64.6,29.7z
			 M96.4,83.9c0,1-0.8,1.9-1.9,1.9c-1,0-1.9-0.8-1.9-1.9c0-1,0.8-1.9,1.9-1.9C95.6,82.1,96.4,82.9,96.4,83.9z M64.6,37.2
			c-1,0-1.9-0.8-1.9-1.9c0-1,0.8-1.9,1.9-1.9c1,0,1.9,0.8,1.9,1.9C66.5,36.4,65.7,37.2,64.6,37.2z"/>
		<path class="st0" d="M111.4,56.2v-7.8c0-0.5-0.2-1-0.5-1.3L97.7,34c-0.3-0.4-0.8-0.5-1.3-0.5h-9.7c-0.8-2.2-2.8-3.7-5.3-3.7
			c-3.1,0-5.6,2.5-5.6,5.6c0,3.1,2.5,5.6,5.6,5.6c2.4,0,4.5-1.6,5.3-3.7h8.9l12,12v7c-2.2,0.8-3.7,2.8-3.7,5.3
			c0,3.1,2.5,5.6,5.6,5.6c3.1,0,5.6-2.5,5.6-5.6C115.1,59.1,113.5,57,111.4,56.2z M81.4,37.2c-1,0-1.9-0.8-1.9-1.9
			c0-1,0.8-1.9,1.9-1.9c1,0,1.9,0.8,1.9,1.9C83.3,36.4,82.5,37.2,81.4,37.2z M109.5,63.4c-1,0-1.9-0.8-1.9-1.9c0-1,0.8-1.9,1.9-1.9
			c1,0,1.9,0.8,1.9,1.9C111.4,62.5,110.5,63.4,109.5,63.4z"/>
		<path class="st0" d="M88.9,98.9c0-3.1-2.5-5.6-5.6-5.6c-2.4,0-4.5,1.6-5.3,3.7H58.7c-0.8-2.2-2.8-3.7-5.3-3.7
			c-2.4,0-4.5,1.6-5.3,3.7H37.3l-6.9-6.9c0.4-0.7,0.6-1.5,0.6-2.4c0-3.1-2.5-5.6-5.6-5.6s-5.6,2.5-5.6,5.6c0,3.1,2.5,5.6,5.6,5.6
			c0.9,0,1.7-0.2,2.4-0.6l7.5,7.5c0.3,0.4,0.8,0.5,1.3,0.5h11.6c0.8,2.2,2.8,3.7,5.3,3.7c2.4,0,4.5-1.6,5.3-3.7h19.4
			c0.6,1.6,1.8,2.8,3.4,3.4V131c-2.2,0.8-3.7,2.8-3.7,5.3c0,3.1,2.5,5.6,5.6,5.6c3.1,0,5.6-2.5,5.6-5.6c0-2.4-1.6-4.5-3.7-5.3v-26.9
			C87.4,103.4,88.9,101.3,88.9,98.9z M23.5,87.7c0-1,0.8-1.9,1.9-1.9c1,0,1.9,0.8,1.9,1.9c0,1-0.8,1.9-1.9,1.9
			C24.3,89.6,23.5,88.7,23.5,87.7z M83.3,97c1,0,1.9,0.8,1.9,1.9c0,1-0.8,1.9-1.9,1.9c-1,0-1.9-0.8-1.9-1.9
			C81.4,97.9,82.3,97,83.3,97z M53.4,100.8c-1,0-1.9-0.8-1.9-1.9c0-1,0.8-1.9,1.9-1.9c1,0,1.9,0.8,1.9,1.9
			C55.3,99.9,54.4,100.8,53.4,100.8z M83.3,138.2c-1,0-1.9-0.8-1.9-1.9c0-1,0.8-1.9,1.9-1.9c1,0,1.9,0.8,1.9,1.9
			C85.2,137.3,84.3,138.2,83.3,138.2z"/>
		<path class="st0" d="M68.4,72.7c0,3.1,2.5,5.6,5.6,5.6c3.1,0,5.6-2.5,5.6-5.6c0-2.4-1.6-4.5-3.7-5.3v-6c0-0.5-0.2-1-0.5-1.3
			L52.8,37.7c0.4-0.7,0.6-1.5,0.6-2.4c0-3.1-2.5-5.6-5.6-5.6c-2.4,0-4.5,1.6-5.3,3.7h-7.8c-1,0-1.9,0.8-1.9,1.9v4.8l-6.9,6.9
			c-0.7-0.4-1.5-0.6-2.4-0.6c-3.1,0-5.6,2.5-5.6,5.6s2.5,5.6,5.6,5.6s5.6-2.5,5.6-5.6c0-0.9-0.2-1.7-0.6-2.4l7.5-7.5
			c0.4-0.3,0.5-0.8,0.5-1.3v-3.7h6c0.8,2.2,2.8,3.7,5.3,3.7c0.9,0,1.7-0.2,2.4-0.6l21.9,21.9v5.2C69.9,68.2,68.4,70.3,68.4,72.7z
			 M23.5,54c-1,0-1.9-0.8-1.9-1.9c0-1,0.8-1.9,1.9-1.9c1,0,1.9,0.8,1.9,1.9C25.4,53.2,24.5,54,23.5,54z M47.8,37.2
			c-1,0-1.9-0.8-1.9-1.9c0-1,0.8-1.9,1.9-1.9c1,0,1.9,0.8,1.9,1.9C49.7,36.4,48.8,37.2,47.8,37.2z M74,74.6c-1,0-1.9-0.8-1.9-1.9
			c0-1,0.8-1.9,1.9-1.9c1,0,1.9,0.8,1.9,1.9C75.8,73.8,75,74.6,74,74.6z"/>
		<path class="st0" d="M9.1,77.8c0.3,0.4,0.8,0.5,1.3,0.5h19.8L40.9,89c0.3,0.4,0.8,0.5,1.3,0.5H65c0.8,2.2,2.8,3.7,5.3,3.7
			c3.1,0,5.6-2.5,5.6-5.6c0-3.1-2.5-5.6-5.6-5.6c-2.4,0-4.5,1.6-5.3,3.7H43L32.3,75.1c-0.3-0.4-0.8-0.5-1.3-0.5H11.2l-4.5-4.5V54.8
			l14.4-14.4c0.7,0.4,1.5,0.6,2.4,0.6c3.1,0,5.6-2.5,5.6-5.6c0-3.1-2.5-5.6-5.6-5.6s-5.6,2.5-5.6,5.6c0,0.9,0.2,1.7,0.6,2.4l-15,15
			c-0.4,0.3-0.5,0.8-0.5,1.3v16.8c0,0.5,0.2,1,0.5,1.3L9.1,77.8z M70.2,85.8c1,0,1.9,0.8,1.9,1.9c0,1-0.8,1.9-1.9,1.9
			c-1,0-1.9-0.8-1.9-1.9C68.4,86.7,69.2,85.8,70.2,85.8z M23.5,33.5c1,0,1.9,0.8,1.9,1.9c0,1-0.8,1.9-1.9,1.9c-1,0-1.9-0.8-1.9-1.9
			C21.6,34.3,22.5,33.5,23.5,33.5z"/>
		<path class="st0" d="M110.8,89c0.4-0.3,0.5-0.8,0.5-1.3v-2.2c2.2-0.8,3.7-2.8,3.7-5.3c0-3.1-2.5-5.6-5.6-5.6
			c-0.9,0-1.7,0.2-2.4,0.6l-6.9-6.9V57.4c2.2-0.8,3.7-2.8,3.7-5.3c0-3.1-2.5-5.6-5.6-5.6c-3.1,0-5.6,2.5-5.6,5.6
			c0,2.4,1.6,4.5,3.7,5.3V69c0,0.5,0.2,1,0.5,1.3l7.5,7.5c-0.4,0.7-0.6,1.5-0.6,2.4c0,2.4,1.6,4.5,3.7,5.3v1.4l-14.4,14.4
			c-0.4,0.3-0.5,0.8-0.5,1.3v2.2c-2.2,0.8-3.7,2.8-3.7,5.3c0,2.4,1.6,4.5,3.7,5.3v4.4c-2.2,0.8-3.7,2.8-3.7,5.3
			c0,3.1,2.5,5.6,5.6,5.6c3.1,0,5.6-2.5,5.6-5.6c0-2.4-1.6-4.5-3.7-5.3v-4.4c2.2-0.8,3.7-2.8,3.7-5.3c0-2.4-1.6-4.5-3.7-5.3v-1.4
			L110.8,89z M98.3,50.3c1,0,1.9,0.8,1.9,1.9c0,1-0.8,1.9-1.9,1.9c-1,0-1.9-0.8-1.9-1.9C96.4,51.1,97.2,50.3,98.3,50.3z M111.4,80.2
			c0,1-0.8,1.9-1.9,1.9c-1,0-1.9-0.8-1.9-1.9c0-1,0.8-1.9,1.9-1.9C110.5,78.3,111.4,79.2,111.4,80.2z M94.5,127
			c-1,0-1.9-0.8-1.9-1.9c0-1,0.8-1.9,1.9-1.9c1,0,1.9,0.8,1.9,1.9C96.4,126.1,95.6,127,94.5,127z M94.5,112c-1,0-1.9-0.8-1.9-1.9
			c0-1,0.8-1.9,1.9-1.9c1,0,1.9,0.8,1.9,1.9C96.4,111.2,95.6,112,94.5,112z"/>
	</g>
	<polygon class="st0" points="103.9,90 103.9,30 51.9,0 0,30 0,90 51.9,120 	"/>
	<g>
		<path class="st0" d="M141.9,85.3h-8.1l-5-29.5v29.5h-8.7V44.4h13.8l3.8,21.3l3.8-21.3h13.9v40.9h-8.8V55.8L141.9,85.3z"/>
		<path class="st0" d="M159.7,85.3V39.9h9.1v20.2l4.4-13.3h9.5L177,63.5l7.3,21.8h-9.8l-5.7-18.1v18.1H159.7z"/>
		<path class="st0" d="M186.3,40.1h8.9v8.2h1.6v7h-1.6V77c0,0.3,0,0.6,0,0.8c0,0.2,0.1,0.4,0.1,0.6c0.1,0.2,0.1,0.4,0.3,0.5
			c0.1,0.1,0.3,0.1,0.6,0.1c0.2,0,0.4,0,0.7-0.1v6.3c-1.3,0.4-2.9,0.7-4.9,0.7c-1,0-1.8-0.1-2.6-0.4c-0.7-0.3-1.3-0.6-1.7-1
			c-0.4-0.4-0.7-0.9-0.9-1.5c-0.2-0.6-0.4-1.2-0.4-1.7c-0.1-0.5-0.1-1.1-0.1-1.8V55.3h-1.4v-7h1.4V40.1z"/>
		<path class="st0" d="M211.2,85.8c-4.2,0-7.2-1-9-2.9c-1.8-1.9-2.7-4.9-2.7-8.9v-4h8.9v3.7c0,2.6,0.7,4,2.2,4
			c0.7,0,1.2-0.3,1.6-0.8c0.4-0.5,0.6-1.2,0.6-2c0-1.1-0.1-2-0.4-2.8c-0.3-0.8-0.8-1.5-1.4-2.1c-0.6-0.7-1.6-1.6-3-2.8l-3.8-3.3
			c-3.1-2.7-4.6-5.6-4.6-9c0-3.6,0.9-6.3,2.8-8.1c1.9-1.8,4.4-2.7,7.7-2.7c0.1,0,0.2,0,0.2,0c0.1,0,0.5,0,1.4,0
			c0.8,0,1.9,0.2,3.2,0.6c1.3,0.4,2.5,1,3.5,1.9c1,0.9,1.8,2.1,2.3,3.7c0.5,1.6,0.8,3.6,0.8,5.9h-9.2l-0.1-2.5
			c0-0.5-0.2-0.9-0.6-1.2c-0.4-0.4-0.8-0.5-1.3-0.5c-0.6,0-1.1,0.2-1.5,0.6c-0.4,0.4-0.6,0.8-0.6,1.4c0,1.2,0.8,2.4,2.5,3.8l5.5,4.4
			c0.9,0.7,1.7,1.4,2.3,2.2c0.7,0.7,1.2,1.5,1.6,2.2s0.7,1.4,0.9,2c0.2,0.6,0.4,1.2,0.5,1.9c0.1,0.7,0.1,1.2,0.2,1.6
			c0,0.4,0,0.8,0,1.4c0,1.4-0.1,2.7-0.3,3.9c-0.2,1.2-0.5,2.3-1,3.4c-0.5,1.1-1.1,2-1.9,2.7c-0.8,0.7-1.8,1.3-3,1.7
			C214.2,85.6,212.8,85.8,211.2,85.8z"/>
		<path class="st0" d="M224.8,85.3V39.9h9.1v20.2l4.4-13.3h9.5l-5.8,16.7l7.3,21.8h-9.8l-5.7-18.1v18.1H224.8z"/>
		<path class="st0" d="M249.5,74.3c0-3.4,0.5-6,1.5-7.7c0.9-1.5,2.4-2.7,4.5-3.7c1.1-0.5,3.5-1.4,7.3-2.7c0,0,0,0,0-0.1
			c0-0.5,0-1,0-1.3c0-0.3,0-0.7,0-1.2c0-0.4,0-0.8,0-1c0-0.3,0-0.5-0.1-0.8c0-0.3-0.1-0.5-0.1-0.7s-0.1-0.3-0.2-0.5
			c-0.1-0.2-0.2-0.3-0.3-0.4c-0.1-0.1-0.2-0.2-0.3-0.3c-0.1-0.1-0.3-0.1-0.4-0.2c-0.2,0-0.3-0.1-0.5-0.1c-1.3,0-1.9,0.7-1.9,2.1v2.6
			h-8.9c0-0.3,0-0.7,0-1.3c0-3.7,0.9-6.3,2.6-8c1.7-1.7,4.6-2.6,8.7-2.6c1.3,0,2.6,0.2,3.8,0.6c1.2,0.4,2.4,0.9,3.4,1.6
			c1.1,0.7,1.9,1.7,2.6,3c0.6,1.3,1,2.8,1,4.4v29.3H263v-4c-0.3,1.1-1,2.2-2.1,3.1c-1.1,0.9-2.3,1.4-3.6,1.4c-0.9,0-1.7-0.1-2.4-0.2
			c-0.7-0.2-1.4-0.5-2.1-1c-0.7-0.5-1.3-1.2-1.7-2c-0.5-0.8-0.8-1.9-1.1-3.3C249.6,77.8,249.5,76.2,249.5,74.3z M258.8,70.7v4.5
			c0,2.3,0.7,3.4,2.1,3.4c0.4,0,0.7-0.1,1-0.3c0.3-0.2,0.5-0.5,0.6-0.8c0.1-0.3,0.2-0.6,0.3-0.9c0.1-0.3,0.1-0.6,0.1-0.9V65.4
			c-1.6,0.6-2.6,1.4-3.2,2.2C259.1,68.5,258.8,69.5,258.8,70.7z"/>
	</g>
	<g>
		<defs>
			<polygon id="SVGID_1_" points="103.9,90 103.9,30 51.9,0 0,30 0,90 51.9,120 			"/>
		</defs>
		<clipPath id="SVGID_2_">
			<use xlink:href="#SVGID_1_"  style="overflow:visible;"/>
		</clipPath>
		<g class="st1">
			<path class="st2" d="M45.9,59.6c-2.4,0-4.5,1.6-5.3,3.7H21.3c-0.8-2.2-2.8-3.7-5.3-3.7c-3.1,0-5.6,2.5-5.6,5.6
				c0,3.1,2.5,5.6,5.6,5.6c2.4,0,4.5-1.6,5.3-3.7h19.4c0.8,2.2,2.8,3.7,5.3,3.7c3.1,0,5.6-2.5,5.6-5.6C51.5,62.2,49,59.6,45.9,59.6z
				 M16,67.1c-1,0-1.9-0.8-1.9-1.9c0-1,0.8-1.9,1.9-1.9c1,0,1.9,0.8,1.9,1.9C17.9,66.3,17,67.1,16,67.1z M45.9,67.1
				c-1,0-1.9-0.8-1.9-1.9c0-1,0.8-1.9,1.9-1.9c1,0,1.9,0.8,1.9,1.9C47.8,66.3,47,67.1,45.9,67.1z"/>
			<path class="st2" d="M53.4,76.5c0,3.1,2.5,5.6,5.6,5.6c3.1,0,5.6-2.5,5.6-5.6c0-2.4-1.6-4.5-3.7-5.3V59.6c0-0.5-0.2-1-0.5-1.3
				l-7.5-7.5c-0.3-0.4-0.8-0.5-1.3-0.5h-6c-0.8-2.2-2.8-3.7-5.3-3.7c-3.1,0-5.6,2.5-5.6,5.6s2.5,5.6,5.6,5.6c2.4,0,4.5-1.6,5.3-3.7
				h5.2l6.4,6.4v10.8C55,72,53.4,74,53.4,76.5z M40.3,54c-1,0-1.9-0.8-1.9-1.9c0-1,0.8-1.9,1.9-1.9c1,0,1.9,0.8,1.9,1.9
				C42.2,53.2,41.3,54,40.3,54z M59,78.3c-1,0-1.9-0.8-1.9-1.9c0-1,0.8-1.9,1.9-1.9c1,0,1.9,0.8,1.9,1.9C60.9,77.5,60,78.3,59,78.3z
				"/>
			<path class="st2" d="M64.6,29.7c-3.1,0-5.6,2.5-5.6,5.6c0,3.1,2.5,5.6,5.6,5.6c0.9,0,1.7-0.2,2.4-0.6l18.2,18.2v17.9
				c0,0.5,0.2,1,0.5,1.3l3.8,3.8c-0.4,0.7-0.6,1.5-0.6,2.4c0,3.1,2.5,5.6,5.6,5.6c3.1,0,5.6-2.5,5.6-5.6c0-3.1-2.5-5.6-5.6-5.6
				c-0.9,0-1.7,0.2-2.4,0.6l-3.2-3.2V57.8c0-0.5-0.2-1-0.5-1.3L69.7,37.7c0.4-0.7,0.6-1.5,0.6-2.4C70.2,32.2,67.7,29.7,64.6,29.7z
				 M96.4,83.9c0,1-0.8,1.9-1.9,1.9c-1,0-1.9-0.8-1.9-1.9c0-1,0.8-1.9,1.9-1.9C95.6,82.1,96.4,82.9,96.4,83.9z M64.6,37.2
				c-1,0-1.9-0.8-1.9-1.9c0-1,0.8-1.9,1.9-1.9c1,0,1.9,0.8,1.9,1.9C66.5,36.4,65.7,37.2,64.6,37.2z"/>
			<path class="st2" d="M111.4,56.2v-7.8c0-0.5-0.2-1-0.5-1.3L97.7,34c-0.3-0.4-0.8-0.5-1.3-0.5h-9.7c-0.8-2.2-2.8-3.7-5.3-3.7
				c-3.1,0-5.6,2.5-5.6,5.6c0,3.1,2.5,5.6,5.6,5.6c2.4,0,4.5-1.6,5.3-3.7h8.9l12,12v7c-2.2,0.8-3.7,2.8-3.7,5.3
				c0,3.1,2.5,5.6,5.6,5.6c3.1,0,5.6-2.5,5.6-5.6C115.1,59.1,113.5,57,111.4,56.2z M81.4,37.2c-1,0-1.9-0.8-1.9-1.9
				c0-1,0.8-1.9,1.9-1.9c1,0,1.9,0.8,1.9,1.9C83.3,36.4,82.5,37.2,81.4,37.2z M109.5,63.4c-1,0-1.9-0.8-1.9-1.9c0-1,0.8-1.9,1.9-1.9
				c1,0,1.9,0.8,1.9,1.9C111.4,62.5,110.5,63.4,109.5,63.4z"/>
			<path class="st2" d="M88.9,98.9c0-3.1-2.5-5.6-5.6-5.6c-2.4,0-4.5,1.6-5.3,3.7H58.7c-0.8-2.2-2.8-3.7-5.3-3.7
				c-2.4,0-4.5,1.6-5.3,3.7H37.3l-6.9-6.9c0.4-0.7,0.6-1.5,0.6-2.4c0-3.1-2.5-5.6-5.6-5.6s-5.6,2.5-5.6,5.6c0,3.1,2.5,5.6,5.6,5.6
				c0.9,0,1.7-0.2,2.4-0.6l7.5,7.5c0.3,0.4,0.8,0.5,1.3,0.5h11.6c0.8,2.2,2.8,3.7,5.3,3.7c2.4,0,4.5-1.6,5.3-3.7h19.4
				c0.6,1.6,1.8,2.8,3.4,3.4V131c-2.2,0.8-3.7,2.8-3.7,5.3c0,3.1,2.5,5.6,5.6,5.6c3.1,0,5.6-2.5,5.6-5.6c0-2.4-1.6-4.5-3.7-5.3
				v-26.9C87.4,103.4,88.9,101.3,88.9,98.9z M23.5,87.7c0-1,0.8-1.9,1.9-1.9c1,0,1.9,0.8,1.9,1.9c0,1-0.8,1.9-1.9,1.9
				C24.3,89.6,23.5,88.7,23.5,87.7z M83.3,97c1,0,1.9,0.8,1.9,1.9c0,1-0.8,1.9-1.9,1.9c-1,0-1.9-0.8-1.9-1.9
				C81.4,97.9,82.3,97,83.3,97z M53.4,100.8c-1,0-1.9-0.8-1.9-1.9c0-1,0.8-1.9,1.9-1.9c1,0,1.9,0.8,1.9,1.9
				C55.3,99.9,54.4,100.8,53.4,100.8z M83.3,138.2c-1,0-1.9-0.8-1.9-1.9c0-1,0.8-1.9,1.9-1.9c1,0,1.9,0.8,1.9,1.9
				C85.2,137.3,84.3,138.2,83.3,138.2z"/>
			<path class="st2" d="M68.4,72.7c0,3.1,2.5,5.6,5.6,5.6c3.1,0,5.6-2.5,5.6-5.6c0-2.4-1.6-4.5-3.7-5.3v-6c0-0.5-0.2-1-0.5-1.3
				L52.8,37.7c0.4-0.7,0.6-1.5,0.6-2.4c0-3.1-2.5-5.6-5.6-5.6c-2.4,0-4.5,1.6-5.3,3.7h-7.8c-1,0-1.9,0.8-1.9,1.9v4.8l-6.9,6.9
				c-0.7-0.4-1.5-0.6-2.4-0.6c-3.1,0-5.6,2.5-5.6,5.6s2.5,5.6,5.6,5.6s5.6-2.5,5.6-5.6c0-0.9-0.2-1.7-0.6-2.4l7.5-7.5
				c0.4-0.3,0.5-0.8,0.5-1.3v-3.7h6c0.8,2.2,2.8,3.7,5.3,3.7c0.9,0,1.7-0.2,2.4-0.6l21.9,21.9v5.2C69.9,68.2,68.4,70.3,68.4,72.7z
				 M23.5,54c-1,0-1.9-0.8-1.9-1.9c0-1,0.8-1.9,1.9-1.9c1,0,1.9,0.8,1.9,1.9C25.4,53.2,24.5,54,23.5,54z M47.8,37.2
				c-1,0-1.9-0.8-1.9-1.9c0-1,0.8-1.9,1.9-1.9c1,0,1.9,0.8,1.9,1.9C49.7,36.4,48.8,37.2,47.8,37.2z M74,74.6c-1,0-1.9-0.8-1.9-1.9
				c0-1,0.8-1.9,1.9-1.9c1,0,1.9,0.8,1.9,1.9C75.8,73.8,75,74.6,74,74.6z"/>
			<path class="st2" d="M9.1,77.8c0.3,0.4,0.8,0.5,1.3,0.5h19.8L40.9,89c0.3,0.4,0.8,0.5,1.3,0.5H65c0.8,2.2,2.8,3.7,5.3,3.7
				c3.1,0,5.6-2.5,5.6-5.6c0-3.1-2.5-5.6-5.6-5.6c-2.4,0-4.5,1.6-5.3,3.7H43L32.3,75.1c-0.3-0.4-0.8-0.5-1.3-0.5H11.2l-4.5-4.5V54.8
				l14.4-14.4c0.7,0.4,1.5,0.6,2.4,0.6c3.1,0,5.6-2.5,5.6-5.6c0-3.1-2.5-5.6-5.6-5.6s-5.6,2.5-5.6,5.6c0,0.9,0.2,1.7,0.6,2.4l-15,15
				c-0.4,0.3-0.5,0.8-0.5,1.3v16.8c0,0.5,0.2,1,0.5,1.3L9.1,77.8z M70.2,85.8c1,0,1.9,0.8,1.9,1.9c0,1-0.8,1.9-1.9,1.9
				c-1,0-1.9-0.8-1.9-1.9C68.4,86.7,69.2,85.8,70.2,85.8z M23.5,33.5c1,0,1.9,0.8,1.9,1.9c0,1-0.8,1.9-1.9,1.9c-1,0-1.9-0.8-1.9-1.9
				C21.6,34.3,22.5,33.5,23.5,33.5z"/>
			<path class="st2" d="M110.8,89c0.4-0.3,0.5-0.8,0.5-1.3v-2.2c2.2-0.8,3.7-2.8,3.7-5.3c0-3.1-2.5-5.6-5.6-5.6
				c-0.9,0-1.7,0.2-2.4,0.6l-6.9-6.9V57.4c2.2-0.8,3.7-2.8,3.7-5.3c0-3.1-2.5-5.6-5.6-5.6c-3.1,0-5.6,2.5-5.6,5.6
				c0,2.4,1.6,4.5,3.7,5.3V69c0,0.5,0.2,1,0.5,1.3l7.5,7.5c-0.4,0.7-0.6,1.5-0.6,2.4c0,2.4,1.6,4.5,3.7,5.3v1.4l-14.4,14.4
				c-0.4,0.3-0.5,0.8-0.5,1.3v2.2c-2.2,0.8-3.7,2.8-3.7,5.3c0,2.4,1.6,4.5,3.7,5.3v4.4c-2.2,0.8-3.7,2.8-3.7,5.3
				c0,3.1,2.5,5.6,5.6,5.6c3.1,0,5.6-2.5,5.6-5.6c0-2.4-1.6-4.5-3.7-5.3v-4.4c2.2-0.8,3.7-2.8,3.7-5.3c0-2.4-1.6-4.5-3.7-5.3v-1.4
				L110.8,89z M98.3,50.3c1,0,1.9,0.8,1.9,1.9c0,1-0.8,1.9-1.9,1.9c-1,0-1.9-0.8-1.9-1.9C96.4,51.1,97.2,50.3,98.3,50.3z
				 M111.4,80.2c0,1-0.8,1.9-1.9,1.9c-1,0-1.9-0.8-1.9-1.9c0-1,0.8-1.9,1.9-1.9C110.5,78.3,111.4,79.2,111.4,80.2z M94.5,127
				c-1,0-1.9-0.8-1.9-1.9c0-1,0.8-1.9,1.9-1.9c1,0,1.9,0.8,1.9,1.9C96.4,126.1,95.6,127,94.5,127z M94.5,112c-1,0-1.9-0.8-1.9-1.9
				c0-1,0.8-1.9,1.9-1.9c1,0,1.9,0.8,1.9,1.9C96.4,111.2,95.6,112,94.5,112z"/>
		</g>
	</g>
</g>
<text transform="matrix(1 0 0 1 147.1833 100.7774)" class="st3 st4 st5">Martketing Digital</text>
</svg>
