<?xml version="1.0" encoding="utf-8"?>
<!-- Generator: Adobe Illustrator 16.0.0, SVG Export Plug-In . SVG Version: 6.00 Build 0)  -->
<!DOCTYPE svg PUBLIC "-//W3C//DTD SVG 1.1//EN" "http://www.w3.org/Graphics/SVG/1.1/DTD/svg11.dtd">
<svg version="1.1" id="Layer_3" xmlns="http://www.w3.org/2000/svg" xmlns:xlink="http://www.w3.org/1999/xlink" x="0px" y="0px"
	 width="465px" height="155px" viewBox="-29.055 -214.5 465 155" enable-background="new -29.055 -214.5 465 155"
	 xml:space="preserve">
<g>
	<path fill="#0F9D59" d="M26.864-100.747l17.997,0.003l-0.018-0.041l-24.577-73.752v70.98
		C21.937-101.833,24.266-100.747,26.864-100.747"/>
	<path fill="#0A6E3D" d="M7.903-137.693l10.271,30.826c0.003,0.006,0.003,0.012,0.006,0.023c0.448,1.251,1.172,2.355,2.077,3.29
		v-70.978l-0.026-0.07L7.903-137.693z"/>
	<path fill="#4284F4" d="M-4.419-174.604l-0.006,0.026l-0.009-0.026l-24.604,73.822l-0.018,0.038h17.997
		c2.596,0,4.928-1.081,6.601-2.818c0.902-0.932,1.626-2.036,2.074-3.287c0.003-0.012,0.003-0.018,0.006-0.018l22.614-67.746H-4.425
		v0.009H-4.419z"/>
	<path fill="#77777A" d="M263.976-131.245h11.435l-4.348-11.522c-0.366-0.902-0.809-2.153-1.315-3.759
		c-0.393,1.4-0.817,2.669-1.292,3.803L263.976-131.245z M276.146-129.238h-12.979l-4.459,11.276h-2.47l12.85-32.083h1.427
		l12.586,32.083h-2.508L276.146-129.238z"/>
	<path fill="#77777A" d="M295.32-140.209c-2.593,0-4.538,0.914-5.839,2.73c-1.313,1.819-1.954,4.468-1.954,7.931
		c0,6.729,2.613,10.099,7.843,10.099c2.684,0,4.652-0.782,5.9-2.335c1.251-1.562,1.878-4.125,1.878-7.717v-0.372
		c0-3.674-0.612-6.313-1.84-7.919C300.061-139.398,298.08-140.209,295.32-140.209 M295.32-142.175c1.72,0,3.211,0.313,4.459,0.94
		c1.254,0.627,2.376,1.696,3.36,3.211h0.129c-0.076-1.834-0.129-3.63-0.129-5.396v-8.543h2.142v34.002h-1.421l-0.545-3.63h-0.182
		c-1.808,2.704-4.4,4.063-7.775,4.063c-3.281,0-5.786-1.017-7.521-3.059c-1.729-2.039-2.596-5.013-2.596-8.915
		c0-4.11,0.861-7.248,2.575-9.419C289.543-141.091,292.042-142.175,295.32-142.175"/>
	<path fill="#77777A" d="M338.817-117.964h-1.834l-7.011-24.653c-0.58-2.024-1.017-3.688-1.315-4.978
		c-0.229,1.266-0.568,2.719-0.993,4.365c-0.434,1.649-2.777,10.069-7.049,25.266h-1.875l-8.783-31.951h2.335l5.596,20.584
		c0.211,0.829,0.419,1.603,0.604,2.306c0.188,0.709,0.36,1.368,0.519,1.986c0.155,0.618,0.296,1.219,0.413,1.796
		c0.123,0.577,0.237,1.157,0.343,1.737c0.34-1.98,1.081-4.989,2.218-9.026l5.464-19.383h2.464l6.404,22.248
		c0.744,2.566,1.28,4.629,1.6,6.205c0.188-1.052,0.428-2.165,0.724-3.343c0.296-1.169,2.549-9.542,6.741-25.104h2.256
		L338.817-117.964z"/>
	<path fill="#77777A" d="M353.185-129.874c0,3.267,0.715,5.813,2.156,7.635c1.433,1.828,3.46,2.739,6.088,2.739
		c2.625,0,4.652-0.911,6.085-2.739c1.436-1.822,2.156-4.368,2.156-7.635c0-3.278-0.727-5.821-2.18-7.623
		c-1.447-1.811-3.486-2.71-6.103-2.71c-2.622,0-4.644,0.899-6.067,2.701C353.894-135.712,353.185-133.167,353.185-129.874
		 M371.935-129.874c0,3.879-0.94,6.905-2.824,9.085c-1.872,2.18-4.465,3.261-7.778,3.261c-2.08,0-3.92-0.498-5.505-1.506
		s-2.81-2.446-3.647-4.33c-0.841-1.872-1.266-4.052-1.266-6.51c0-3.873,0.938-6.894,2.818-9.056
		c1.881-2.165,4.456-3.246,7.729-3.246c3.27,0,5.827,1.096,7.69,3.29C371.006-136.694,371.935-133.691,371.935-129.874"/>
	<path fill="#77777A" d="M387.415-142.175c1.008,0,2.08,0.103,3.234,0.305l-0.419,2.08c-0.987-0.246-2.019-0.375-3.076-0.375
		c-2.027,0-3.686,0.858-4.98,2.578c-1.298,1.723-1.945,3.891-1.945,6.51v13.122h-2.165v-23.763h1.837l0.211,4.283h0.158
		c0.976-1.746,2.021-2.974,3.12-3.683C384.5-141.821,385.842-142.175,387.415-142.175"/>
	<path fill="#77777A" d="M403.728-140.209c-2.587,0-4.544,0.914-5.842,2.73c-1.307,1.819-1.948,4.468-1.948,7.931
		c0,6.729,2.613,10.099,7.849,10.099c2.678,0,4.644-0.782,5.897-2.335c1.254-1.562,1.878-4.125,1.878-7.717v-0.372
		c0-3.674-0.618-6.313-1.843-7.919C408.474-139.398,406.481-140.209,403.728-140.209 M403.728-142.175
		c1.717,0,3.199,0.313,4.459,0.94c1.248,0.627,2.373,1.696,3.363,3.211h0.135c-0.088-1.834-0.135-3.63-0.135-5.396v-8.543h2.142
		v34.002h-1.424l-0.548-3.63h-0.179c-1.808,2.704-4.397,4.063-7.772,4.063c-3.278,0-5.786-1.017-7.521-3.059
		c-1.731-2.039-2.596-5.013-2.596-8.915c0-4.11,0.861-7.248,2.572-9.419C397.95-141.091,400.449-142.175,403.728-142.175"/>
	<path fill="#77777A" d="M435.945-124.146c0,2.121-0.809,3.753-2.426,4.904c-1.617,1.146-3.914,1.708-6.882,1.708
		c-3.182,0-5.698-0.483-7.564-1.456v-2.335c2.396,1.195,4.916,1.79,7.564,1.79c2.344,0,4.128-0.39,5.338-1.166
		c1.216-0.785,1.822-1.825,1.822-3.114c0-1.195-0.483-2.2-1.453-3.015c-0.964-0.817-2.558-1.617-4.775-2.408
		c-2.37-0.858-4.04-1.594-5.001-2.218c-0.952-0.618-1.688-1.315-2.177-2.092c-0.486-0.788-0.727-1.729-0.727-2.854
		c0-1.772,0.744-3.182,2.238-4.213c1.497-1.031,3.58-1.553,6.258-1.553c2.566,0,4.998,0.48,7.301,1.444l-0.814,1.966
		c-2.329-0.958-4.488-1.444-6.486-1.444c-1.945,0-3.472,0.319-4.608,0.961c-1.14,0.639-1.696,1.529-1.696,2.666
		c0,1.245,0.437,2.232,1.318,2.968c0.879,0.75,2.604,1.573,5.171,2.496c2.139,0.773,3.703,1.462,4.676,2.083
		c0.976,0.621,1.708,1.321,2.2,2.104C435.702-126.138,435.945-125.209,435.945-124.146"/>
	<path fill="#77777A" d="M191.586-127.175c1.348-1.371,1.465-3.249,1.465-4.31c0-4.233-2.528-10.825-7.392-10.825
		c-1.526,0-3.17,0.759-4.11,1.939c-0.999,1.236-1.295,2.821-1.295,4.356c0,3.94,2.288,10.491,7.342,10.491
		C189.049-125.523,190.643-126.235,191.586-127.175 M189.884-115.996c-0.466-0.053-0.765-0.053-1.342-0.053
		c-0.533,0-3.706,0.111-6.164,0.935c-1.298,0.478-5.048,1.898-5.048,6.082c0,4.175,4.058,7.187,10.336,7.187
		c5.619,0,8.607-2.719,8.607-6.363C196.271-111.223,194.34-112.793,189.884-115.996 M194.047-142.143
		c1.342,1.128,4.166,3.478,4.166,7.945c0,4.374-2.47,6.431-4.934,8.376c-0.753,0.771-1.635,1.585-1.635,2.889
		c0,1.292,0.882,1.998,1.521,2.522l2.106,1.646c2.581,2.188,4.937,4.175,4.937,8.256c0,5.528-5.344,11.121-15.434,11.121
		c-8.502,0-12.606-4.063-12.606-8.426c0-2.106,1.046-5.106,4.515-7.189c3.633-2.227,8.566-2.531,11.209-2.701
		c-0.817-1.066-1.767-2.186-1.767-3.996c0-0.996,0.299-1.597,0.589-2.3c-0.65,0.062-1.289,0.117-1.881,0.117
		c-6.214,0-9.732-4.67-9.732-9.246c0-2.719,1.236-5.713,3.753-7.887c3.331-2.777,7.33-3.249,10.494-3.249h12.091l-3.762,2.121
		H194.047z"/>
	<path fill="#77777A" d="M164.431-121.697c1.409-1.875,1.767-4.213,1.767-6.527c0-5.177-2.464-15.047-9.727-15.047
		c-1.939,0-3.87,0.759-5.282,1.998c-2.279,2.051-2.701,4.644-2.701,7.175c0,5.821,2.883,15.401,9.973,15.401
		C160.739-118.697,163.086-119.804,164.431-121.697 M157.112-116.933c-9.316,0-14.291-7.295-14.291-13.881
		c0-7.699,6.261-14.285,15.164-14.285c8.61,0,14.001,6.762,14.001,13.872C171.983-124.287,166.666-116.933,157.112-116.933"/>
	<path fill="#77777A" d="M132.688-121.697c1.409-1.875,1.755-4.213,1.755-6.527c0-5.177-2.449-15.047-9.727-15.047
		c-1.934,0-3.858,0.759-5.268,1.998c-2.282,2.051-2.698,4.644-2.698,7.175c0,5.821,2.868,15.401,9.952,15.401
		C128.999-118.697,131.34-119.804,132.688-121.697 M125.363-116.933c-9.319,0-14.288-7.295-14.288-13.881
		c0-7.699,6.261-14.285,15.167-14.285c8.61,0,14.001,6.762,14.001,13.872C140.249-124.287,134.917-116.933,125.363-116.933"/>
	<path fill="#77777A" d="M106.59-117.859l-8.414,1.951c-3.419,0.542-6.472,1.011-9.715,1.011c-16.251,0-22.427-12-22.427-21.404
		c0-11.473,8.771-22.104,23.78-22.104c3.185,0,6.252,0.472,9.012,1.233c4.409,1.248,6.483,2.792,7.764,3.665l-4.872,4.664
		l-2.068,0.472l1.471-2.361c-2.01-1.948-5.654-5.543-12.604-5.543c-9.308,0-16.31,7.09-16.31,17.432
		c0,11.115,8.007,21.577,20.842,21.577c3.779,0,5.716-0.779,7.482-1.485v-9.513l-8.895,0.466l4.702-2.531h12.486l-1.523,1.477
		c-0.413,0.346-0.475,0.463-0.586,0.935c-0.064,0.548-0.126,2.259-0.126,2.851V-117.859z"/>
	<path fill="#77777A" d="M212.662-119.546c-1.951-0.188-2.358-0.539-2.358-2.839v-0.659v-32.804
		c0.018-0.132,0.023-0.255,0.038-0.378c0.237-2.08,0.829-2.423,2.646-3.501h-8.417l-4.421,2.127h4.512v0.035l-0.003-0.015v34.535
		v1.96c0,1.178-0.243,1.351-1.6,3.114h10.421l2.2-1.307C214.663-119.371,213.661-119.441,212.662-119.546"/>
	<path fill="#77777A" d="M231.128-136.506c1.113-0.416,1.693-0.759,1.693-1.579c0-2.358-2.631-5.06-5.792-5.06
		c-2.341,0-6.727,1.831-6.727,8.168c0,1.002,0.123,2.06,0.179,3.103L231.128-136.506z M236.627-119.016
		c-0.642,0.354-1.298,0.779-1.942,1.063c-1.925,0.896-3.908,1.11-5.663,1.11c-1.878,0-4.79-0.108-7.79-2.3
		c-4.131-2.912-5.962-7.972-5.962-12.372c0-9.105,7.374-13.562,13.395-13.562c2.109,0,4.283,0.533,6.018,1.638
		c2.936,1.934,3.706,4.456,4.096,5.813l-13.737,5.581l-4.506,0.346c1.45,7.471,6.486,11.807,12.05,11.807
		c2.974,0,5.133-1.055,7.125-2.045L236.627-119.016z"/>
</g>
</svg>
