<?xml version="1.0" encoding="utf-8"?>
<!-- Generator: Adobe Illustrator 22.1.0, SVG Export Plug-In . SVG Version: 6.00 Build 0)  -->
<svg version="1.1" id="Capa_1" xmlns="http://www.w3.org/2000/svg" xmlns:xlink="http://www.w3.org/1999/xlink" x="0px" y="0px"
	 viewBox="0 0 615.8 197.9" style="enable-background:new 0 0 615.8 197.9;" xml:space="preserve">
<style type="text/css">
	.st0{fill:#002663;}
	.st1{fill:#4790DB;}
</style>
<rect x="142.5" y="123.8" class="st0" width="473.3" height="7.6"/>
<g>
	<path class="st0" d="M201.9,167.7l0.6,3.5c-1.1,0.2-2.1,0.3-3,0.3c-1.4,0-2.5-0.2-3.3-0.7c-0.8-0.5-1.3-1-1.7-1.8
		c-0.3-0.7-0.5-2.3-0.5-4.6v-13.3h-2.9V148h2.9v-5.7l3.9-2.4v8.1h3.9v3.1h-3.9v13.6c0,1.1,0.1,1.8,0.2,2.2c0.1,0.3,0.4,0.6,0.7,0.8
		c0.3,0.2,0.8,0.3,1.3,0.3C200.6,167.8,201.2,167.8,201.9,167.7z"/>
	<path class="st0" d="M205.7,143.7v-4.5h3.9v4.5H205.7z M205.7,171.2V148h3.9v23.2H205.7z"/>
	<path class="st0" d="M215.6,171.2V148h3.5v3.3c1.7-2.5,4.2-3.8,7.4-3.8c1.4,0,2.7,0.3,3.9,0.8c1.2,0.5,2,1.2,2.6,2
		c0.6,0.8,1,1.8,1.2,2.9c0.1,0.7,0.2,2,0.2,3.8v14.3h-3.9v-14.1c0-1.6-0.2-2.8-0.5-3.6c-0.3-0.8-0.8-1.4-1.6-1.9
		c-0.8-0.5-1.7-0.7-2.7-0.7c-1.7,0-3.1,0.5-4.3,1.6c-1.2,1.1-1.8,3.1-1.8,6v12.7H215.6z"/>
	<path class="st0" d="M249.1,167.7l0.6,3.5c-1.1,0.2-2.1,0.3-3,0.3c-1.4,0-2.5-0.2-3.3-0.7c-0.8-0.5-1.3-1-1.7-1.8
		c-0.3-0.7-0.5-2.3-0.5-4.6v-13.3h-2.9V148h2.9v-5.7l3.9-2.4v8.1h3.9v3.1h-3.9v13.6c0,1.1,0.1,1.8,0.2,2.2c0.1,0.3,0.4,0.6,0.7,0.8
		c0.3,0.2,0.8,0.3,1.3,0.3C247.8,167.8,248.4,167.8,249.1,167.7z"/>
	<path class="st0" d="M251.4,159.6c0-4.3,1.2-7.5,3.6-9.5c2-1.7,4.4-2.6,7.3-2.6c3.2,0,5.8,1,7.8,3.1c2,2.1,3,5,3,8.7
		c0,3-0.4,5.3-1.3,7c-0.9,1.7-2.2,3-3.9,4c-1.7,0.9-3.6,1.4-5.6,1.4c-3.2,0-5.9-1-7.9-3.1C252.4,166.5,251.4,163.5,251.4,159.6z
		 M255.5,159.6c0,3,0.6,5.2,1.9,6.7c1.3,1.5,2.9,2.2,4.9,2.2c1.9,0,3.6-0.7,4.9-2.2c1.3-1.5,1.9-3.7,1.9-6.8c0-2.9-0.7-5-2-6.5
		c-1.3-1.5-2.9-2.2-4.9-2.2c-2,0-3.6,0.7-4.9,2.2C256.1,154.4,255.5,156.6,255.5,159.6z"/>
	<path class="st0" d="M277.7,171.2V148h3.5v3.5c0.9-1.6,1.7-2.7,2.5-3.3c0.8-0.5,1.6-0.8,2.5-0.8c1.3,0,2.7,0.4,4,1.3l-1.4,3.6
		c-1-0.6-1.9-0.9-2.9-0.9c-0.9,0-1.6,0.3-2.3,0.8c-0.7,0.5-1.2,1.2-1.5,2.1c-0.4,1.4-0.7,2.9-0.7,4.6v12.1H277.7z"/>
	<path class="st0" d="M308.5,163.7l4.1,0.5c-0.6,2.4-1.8,4.2-3.6,5.5c-1.7,1.3-3.9,2-6.6,2c-3.4,0-6.1-1-8.1-3.1c-2-2.1-3-5-3-8.8
		c0-3.9,1-6.9,3-9.1c2-2.2,4.6-3.2,7.8-3.2c3.1,0,5.6,1.1,7.6,3.2c2,2.1,2.9,5.1,2.9,8.9c0,0.2,0,0.6,0,1h-17.3
		c0.1,2.5,0.9,4.5,2.2,5.8c1.3,1.4,2.9,2,4.8,2c1.4,0,2.7-0.4,3.7-1.1C307.1,166.6,307.9,165.4,308.5,163.7z M295.6,157.4h12.9
		c-0.2-1.9-0.7-3.4-1.5-4.4c-1.3-1.5-2.9-2.3-4.9-2.3c-1.8,0-3.3,0.6-4.5,1.8C296.4,153.7,295.7,155.4,295.6,157.4z"/>
	<path class="st0" d="M317.5,171.2V148h3.5v3.5c0.9-1.6,1.7-2.7,2.5-3.3c0.8-0.5,1.6-0.8,2.5-0.8c1.3,0,2.7,0.4,4,1.3l-1.4,3.6
		c-1-0.6-1.9-0.9-2.9-0.9c-0.9,0-1.6,0.3-2.3,0.8c-0.7,0.5-1.2,1.2-1.5,2.1c-0.4,1.4-0.7,2.9-0.7,4.6v12.1H317.5z"/>
	<path class="st0" d="M333.6,145.1l2.9-6.1h5.2l-4.8,6.1H333.6z M333.8,171.2V148h3.9v23.2H333.8z"/>
	<path class="st0" d="M359.9,168.3c-1.5,1.2-2.9,2.1-4.2,2.6c-1.3,0.5-2.8,0.8-4.3,0.8c-2.5,0-4.5-0.6-5.9-1.9
		c-1.4-1.2-2.1-2.8-2.1-4.8c0-1.1,0.3-2.2,0.8-3.1c0.5-0.9,1.2-1.7,2-2.3c0.8-0.6,1.8-1,2.8-1.3c0.8-0.2,1.9-0.4,3.5-0.6
		c3.2-0.4,5.5-0.8,7-1.4c0-0.5,0-0.9,0-1c0-1.6-0.4-2.7-1.1-3.4c-1-0.9-2.5-1.3-4.5-1.3c-1.8,0-3.2,0.3-4.1,1
		c-0.9,0.6-1.5,1.8-2,3.4l-3.8-0.5c0.3-1.6,0.9-3,1.7-4s2-1.8,3.5-2.3c1.5-0.5,3.3-0.8,5.3-0.8c2,0,3.6,0.2,4.8,0.7
		c1.2,0.5,2.1,1.1,2.7,1.8c0.6,0.7,1,1.6,1.2,2.7c0.1,0.7,0.2,1.9,0.2,3.6v5.2c0,3.7,0.1,6,0.3,6.9c0.2,1,0.5,1.9,1,2.8h-4.1
		C360.3,170.4,360,169.4,359.9,168.3z M359.6,159.6c-1.4,0.6-3.6,1.1-6.4,1.5c-1.6,0.2-2.8,0.5-3.4,0.8c-0.7,0.3-1.2,0.7-1.5,1.3
		c-0.4,0.6-0.5,1.2-0.5,1.9c0,1,0.4,1.9,1.2,2.6c0.8,0.7,2,1,3.5,1c1.5,0,2.9-0.3,4-1c1.2-0.7,2-1.6,2.6-2.7
		c0.4-0.9,0.6-2.2,0.6-3.9V159.6z"/>
	<path class="st0" d="M400.4,167.4c-1.3,1.4-2.7,2.5-4.2,3.2c-1.5,0.7-3.2,1.1-5,1.1c-3.3,0-5.9-1.1-7.8-3.3c-1.6-1.8-2.3-3.8-2.3-6
		c0-2,0.6-3.8,1.9-5.4c1.3-1.6,3.2-3,5.7-4.2c-1.4-1.7-2.4-3-2.9-4c-0.5-1-0.7-2-0.7-3c0-1.9,0.8-3.6,2.3-5c1.5-1.4,3.4-2.1,5.7-2.1
		c2.2,0,4,0.7,5.4,2c1.4,1.3,2.1,2.9,2.1,4.8c0,3-2,5.6-6,7.8l5.7,7.3c0.7-1.3,1.2-2.8,1.5-4.5l4.1,0.9c-0.7,2.8-1.6,5.1-2.8,6.9
		c1.5,1.9,3.1,3.6,5,4.9l-2.6,3.1C403.7,170.9,402,169.4,400.4,167.4z M397.9,164.3l-7.2-8.9c-2.1,1.3-3.6,2.4-4.3,3.5
		c-0.7,1.1-1.1,2.2-1.1,3.2c0,1.3,0.5,2.6,1.5,4c1,1.4,2.5,2.1,4.4,2.1c1.2,0,2.4-0.4,3.7-1.1C396.1,166.4,397.1,165.5,397.9,164.3z
		 M392.4,150.7c1.7-1,2.8-1.9,3.3-2.6c0.5-0.8,0.8-1.6,0.8-2.5c0-1.1-0.3-2-1-2.7c-0.7-0.7-1.6-1-2.6-1c-1.1,0-1.9,0.3-2.7,1
		c-0.7,0.7-1.1,1.5-1.1,2.5c0,0.5,0.1,1,0.4,1.6c0.3,0.5,0.6,1.1,1.1,1.7L392.4,150.7z"/>
	<path class="st0" d="M439.4,162.7l3.9,0.5c-0.4,2.7-1.5,4.7-3.2,6.3c-1.7,1.5-3.9,2.3-6.4,2.3c-3.2,0-5.7-1-7.6-3.1
		c-1.9-2.1-2.9-5-2.9-8.9c0-2.5,0.4-4.7,1.2-6.6c0.8-1.9,2.1-3.3,3.8-4.2c1.7-0.9,3.5-1.4,5.5-1.4c2.5,0,4.6,0.6,6.2,1.9
		c1.6,1.3,2.6,3.1,3.1,5.4l-3.8,0.6c-0.4-1.6-1-2.7-1.9-3.5c-0.9-0.8-2-1.2-3.3-1.2c-2,0-3.6,0.7-4.8,2.1c-1.2,1.4-1.9,3.7-1.9,6.7
		c0,3.1,0.6,5.4,1.8,6.8c1.2,1.4,2.7,2.1,4.7,2.1c1.5,0,2.8-0.5,3.9-1.4C438.5,166.1,439.1,164.7,439.4,162.7z"/>
	<path class="st0" d="M445.2,159.6c0-4.3,1.2-7.5,3.6-9.5c2-1.7,4.4-2.6,7.3-2.6c3.2,0,5.8,1,7.8,3.1c2,2.1,3,5,3,8.7
		c0,3-0.4,5.3-1.3,7c-0.9,1.7-2.2,3-3.9,4c-1.7,0.9-3.6,1.4-5.6,1.4c-3.2,0-5.9-1-7.9-3.1C446.2,166.5,445.2,163.5,445.2,159.6z
		 M449.2,159.6c0,3,0.6,5.2,1.9,6.7c1.3,1.5,2.9,2.2,4.9,2.2c1.9,0,3.6-0.7,4.9-2.2c1.3-1.5,1.9-3.7,1.9-6.8c0-2.9-0.7-5-2-6.5
		c-1.3-1.5-2.9-2.2-4.9-2.2c-2,0-3.6,0.7-4.9,2.2C449.9,154.4,449.2,156.6,449.2,159.6z"/>
	<path class="st0" d="M469.9,164.3l3.9-0.6c0.2,1.6,0.8,2.8,1.8,3.6c1,0.8,2.4,1.2,4.2,1.2c1.8,0,3.1-0.4,4-1.1
		c0.9-0.7,1.3-1.6,1.3-2.6c0-0.9-0.4-1.6-1.2-2.1c-0.5-0.3-1.9-0.8-4-1.3c-2.9-0.7-4.9-1.4-6-1.9c-1.1-0.5-2-1.3-2.5-2.2
		c-0.6-0.9-0.9-2-0.9-3.1c0-1,0.2-2,0.7-2.9c0.5-0.9,1.1-1.6,1.9-2.2c0.6-0.5,1.4-0.8,2.5-1.1c1.1-0.3,2.2-0.5,3.4-0.5
		c1.8,0,3.4,0.3,4.8,0.8c1.4,0.5,2.4,1.2,3,2.1c0.7,0.9,1.1,2.1,1.4,3.6l-3.8,0.5c-0.2-1.2-0.7-2.1-1.5-2.8c-0.8-0.7-2-1-3.5-1
		c-1.8,0-3.1,0.3-3.9,0.9c-0.8,0.6-1.2,1.3-1.2,2.1c0,0.5,0.2,1,0.5,1.4c0.3,0.4,0.8,0.8,1.5,1c0.4,0.1,1.5,0.5,3.5,1
		c2.8,0.7,4.7,1.3,5.8,1.8c1.1,0.5,2,1.2,2.6,2.1c0.6,0.9,0.9,2,0.9,3.4c0,1.3-0.4,2.5-1.1,3.7c-0.8,1.2-1.9,2.1-3.3,2.7
		c-1.4,0.6-3.1,0.9-4.9,0.9c-3,0-5.3-0.6-6.9-1.9C471.4,168.6,470.4,166.7,469.9,164.3z"/>
	<path class="st0" d="M502.4,167.7l0.6,3.5c-1.1,0.2-2.1,0.3-3,0.3c-1.4,0-2.5-0.2-3.3-0.7c-0.8-0.5-1.3-1-1.7-1.8
		c-0.3-0.7-0.5-2.3-0.5-4.6v-13.3h-2.9V148h2.9v-5.7l3.9-2.4v8.1h3.9v3.1h-3.9v13.6c0,1.1,0.1,1.8,0.2,2.2c0.1,0.3,0.4,0.6,0.7,0.8
		c0.3,0.2,0.8,0.3,1.3,0.3C501.1,167.8,501.7,167.8,502.4,167.7z"/>
	<path class="st0" d="M521.4,171.2v-3.4c-1.8,2.6-4.3,3.9-7.4,3.9c-1.4,0-2.6-0.3-3.8-0.8c-1.2-0.5-2.1-1.2-2.6-2
		c-0.6-0.8-1-1.8-1.2-2.9c-0.2-0.8-0.2-2-0.2-3.7V148h3.9v12.9c0,2.1,0.1,3.4,0.2,4.1c0.2,1,0.8,1.8,1.6,2.4c0.8,0.6,1.8,0.9,3,0.9
		c1.2,0,2.3-0.3,3.3-0.9c1-0.6,1.8-1.4,2.2-2.5c0.4-1,0.6-2.5,0.6-4.5V148h3.9v23.2H521.4z"/>
	<path class="st0" d="M531.1,171.2V148h3.5v3.5c0.9-1.6,1.7-2.7,2.5-3.3c0.8-0.5,1.6-0.8,2.5-0.8c1.3,0,2.7,0.4,4,1.3l-1.4,3.6
		c-1-0.6-1.9-0.9-2.9-0.9c-0.9,0-1.6,0.3-2.3,0.8c-0.7,0.5-1.2,1.2-1.5,2.1c-0.4,1.4-0.7,2.9-0.7,4.6v12.1H531.1z"/>
	<path class="st0" d="M561.1,168.3c-1.5,1.2-2.9,2.1-4.2,2.6c-1.3,0.5-2.8,0.8-4.3,0.8c-2.5,0-4.5-0.6-5.9-1.9
		c-1.4-1.2-2.1-2.8-2.1-4.8c0-1.1,0.3-2.2,0.8-3.1c0.5-0.9,1.2-1.7,2-2.3c0.8-0.6,1.8-1,2.8-1.3c0.8-0.2,1.9-0.4,3.5-0.6
		c3.2-0.4,5.5-0.8,7-1.4c0-0.5,0-0.9,0-1c0-1.6-0.4-2.7-1.1-3.4c-1-0.9-2.5-1.3-4.5-1.3c-1.8,0-3.2,0.3-4.1,1
		c-0.9,0.6-1.5,1.8-2,3.4l-3.8-0.5c0.3-1.6,0.9-3,1.7-4c0.8-1,2-1.8,3.5-2.3c1.5-0.5,3.3-0.8,5.3-0.8c2,0,3.6,0.2,4.8,0.7
		c1.2,0.5,2.1,1.1,2.7,1.8c0.6,0.7,1,1.6,1.2,2.7c0.1,0.7,0.2,1.9,0.2,3.6v5.2c0,3.7,0.1,6,0.3,6.9c0.2,1,0.5,1.9,1,2.8h-4.1
		C561.5,170.4,561.2,169.4,561.1,168.3z M560.8,159.6c-1.4,0.6-3.6,1.1-6.4,1.5c-1.6,0.2-2.8,0.5-3.4,0.8c-0.7,0.3-1.2,0.7-1.6,1.3
		c-0.4,0.6-0.5,1.2-0.5,1.9c0,1,0.4,1.9,1.2,2.6c0.8,0.7,2,1,3.5,1c1.5,0,2.9-0.3,4-1c1.2-0.7,2-1.6,2.6-2.7
		c0.4-0.9,0.6-2.2,0.6-3.9V159.6z"/>
</g>
<g>
	<path class="st1" d="M155.9,48.5h17.6c5.6,0,9.8,0.4,12.7,1.3c2.9,0.9,5.2,2.6,7,5.3c1.8,2.6,2.6,6.9,2.6,12.8c0,4-0.6,6.7-1.9,8.3
		c-1.2,1.6-3.7,2.8-7.4,3.6c4.1,0.9,6.9,2.5,8.3,4.6c1.5,2.1,2.2,5.4,2.2,9.9v6.3c0,4.6-0.5,8-1.6,10.2c-1,2.2-2.7,3.7-5,4.5
		c-2.3,0.8-7,1.2-14.1,1.2h-20.5V48.5z M173.5,60.2v15.1c0.8,0,1.3,0,1.8,0c1.7,0,2.8-0.4,3.3-1.3c0.5-0.9,0.7-3.3,0.7-7.3
		c0-2.1-0.2-3.6-0.6-4.5c-0.4-0.9-0.9-1.4-1.5-1.6C176.6,60.3,175.4,60.2,173.5,60.2z M173.5,85.9v19c2.5-0.1,4.1-0.5,4.8-1.2
		c0.7-0.7,1-2.4,1-5.2v-6.3c0-2.9-0.3-4.7-0.9-5.3C177.8,86.3,176.2,86,173.5,85.9z"/>
	<path class="st1" d="M220.4,48.5v68h-17.5v-68H220.4z"/>
	<path class="st1" d="M265.3,60.8v55.8H248l0.3-4.6c-1.2,1.9-2.6,3.3-4.3,4.2c-1.7,0.9-3.7,1.4-5.9,1.4c-2.5,0-4.7-0.4-6.3-1.3
		c-1.7-0.9-2.9-2.1-3.7-3.6c-0.8-1.5-1.3-3-1.5-4.6c-0.2-1.6-0.3-4.8-0.3-9.6V60.8h17v37.9c0,4.3,0.1,6.9,0.4,7.7
		c0.3,0.8,1,1.2,2.2,1.2c1.3,0,2-0.4,2.2-1.3c0.2-0.8,0.4-3.5,0.4-8.1V60.8H265.3z"/>
	<path class="st1" d="M309.9,89.7h-22v12.1c0,2.5,0.2,4.1,0.5,4.9c0.4,0.7,1.1,1.1,2.1,1.1c1.3,0,2.1-0.5,2.6-1.4
		c0.4-1,0.7-2.8,0.7-5.6v-7.4h16.1v4.1c0,3.4-0.2,6.1-0.7,7.9c-0.4,1.9-1.4,3.8-3,5.9c-1.6,2.1-3.6,3.7-6.1,4.7
		c-2.5,1.1-5.5,1.6-9.2,1.6c-3.6,0-6.8-0.5-9.5-1.6c-2.7-1-4.9-2.5-6.4-4.3c-1.5-1.8-2.6-3.8-3.2-6c-0.6-2.2-0.9-5.3-0.9-9.5V80
		c0-4.9,0.7-8.7,2-11.5c1.3-2.8,3.5-5,6.5-6.5c3-1.5,6.4-2.3,10.3-2.3c4.8,0,8.7,0.9,11.8,2.7c3.1,1.8,5.3,4.2,6.5,7.2
		c1.2,3,1.9,7.2,1.9,12.6V89.7z M292.8,80.6v-4.1c0-2.9-0.2-4.7-0.5-5.6c-0.3-0.8-0.9-1.3-1.9-1.3c-1.2,0-1.9,0.4-2.2,1.1
		c-0.3,0.7-0.4,2.6-0.4,5.8v4.1H292.8z"/>
</g>
<g>
	<path class="st1" d="M372.4,78.2h-17.7V66.3c0-3.4-0.2-5.6-0.6-6.4c-0.4-0.9-1.2-1.3-2.5-1.3c-1.5,0-2.4,0.5-2.8,1.6
		c-0.4,1-0.6,3.3-0.6,6.7v31.6c0,3.3,0.2,5.5,0.6,6.5c0.4,1,1.3,1.5,2.6,1.5c1.3,0,2.2-0.5,2.6-1.5c0.4-1,0.6-3.4,0.6-7.1v-8.5h17.7
		v2.6c0,7-0.5,12-1.5,15c-1,2.9-3.2,5.5-6.6,7.7c-3.4,2.2-7.6,3.3-12.6,3.3c-5.2,0-9.5-0.9-12.8-2.8c-3.4-1.9-5.6-4.5-6.7-7.8
		c-1.1-3.3-1.6-8.3-1.6-15V72.5c0-4.9,0.2-8.6,0.5-11c0.3-2.5,1.3-4.8,3-7.1c1.7-2.3,4-4.1,6.9-5.4c3-1.3,6.3-2,10.2-2
		c5.2,0,9.5,1,12.9,3c3.4,2,5.6,4.5,6.7,7.5c1.1,3,1.6,7.7,1.6,14V78.2z"/>
	<path class="st1" d="M395.7,48.5v68h-17.5v-68H395.7z"/>
	<path class="st1" d="M440.2,89.7h-22v12.1c0,2.5,0.2,4.1,0.5,4.9c0.4,0.7,1.1,1.1,2.1,1.1c1.3,0,2.1-0.5,2.6-1.4
		c0.4-1,0.7-2.8,0.7-5.6v-7.4h16.1v4.1c0,3.4-0.2,6.1-0.7,7.9c-0.4,1.9-1.4,3.8-3,5.9c-1.6,2.1-3.6,3.7-6.1,4.7
		c-2.5,1.1-5.5,1.6-9.2,1.6c-3.6,0-6.8-0.5-9.5-1.6c-2.7-1-4.9-2.5-6.4-4.3c-1.5-1.8-2.6-3.8-3.2-6c-0.6-2.2-0.9-5.3-0.9-9.5V80
		c0-4.9,0.7-8.7,2-11.5c1.3-2.8,3.5-5,6.5-6.5c3-1.5,6.4-2.3,10.3-2.3c4.8,0,8.7,0.9,11.8,2.7c3.1,1.8,5.3,4.2,6.5,7.2
		c1.2,3,1.9,7.2,1.9,12.6V89.7z M423.2,80.6v-4.1c0-2.9-0.2-4.7-0.5-5.6c-0.3-0.8-0.9-1.3-1.9-1.3c-1.2,0-1.9,0.4-2.2,1.1
		c-0.3,0.7-0.4,2.6-0.4,5.8v4.1H423.2z"/>
	<path class="st1" d="M461,82.4H445v-3.7c0-4.3,0.5-7.6,1.5-10c1-2.3,3-4.4,6-6.2c3-1.8,6.9-2.7,11.7-2.7c5.7,0,10.1,1,13,3
		c2.9,2,4.7,4.5,5.3,7.5c0.6,3,0.9,9,0.9,18.3v28h-16.5v-5c-1,2-2.4,3.5-4,4.5c-1.6,1-3.6,1.5-5.9,1.5c-3,0-5.7-0.8-8.2-2.5
		c-2.5-1.7-3.7-5.3-3.7-10.9v-4.6c0-4.2,0.7-7,2-8.5c1.3-1.5,4.6-3.3,9.8-5.3c5.6-2.2,8.6-3.7,8.9-4.4c0.4-0.8,0.6-2.3,0.6-4.6
		c0-2.9-0.2-4.8-0.7-5.7c-0.4-0.9-1.2-1.3-2.2-1.3c-1.2,0-1.9,0.4-2.1,1.1c-0.3,0.7-0.4,2.7-0.4,5.8V82.4z M466.3,90
		c-2.7,2-4.3,3.7-4.7,5c-0.4,1.3-0.7,3.3-0.7,5.8c0,2.9,0.2,4.7,0.6,5.6c0.4,0.8,1.1,1.3,2.2,1.3c1.1,0,1.8-0.3,2.1-1
		c0.3-0.7,0.5-2.4,0.5-5.2V90z"/>
	<path class="st1" d="M506.4,60.8l-0.3,5.1c1.2-2,2.7-3.6,4.5-4.6c1.8-1,3.8-1.5,6.2-1.5c2.9,0,5.3,0.7,7.1,2.1
		c1.8,1.4,3,3.1,3.6,5.2c0.5,2.1,0.8,5.6,0.8,10.4v39.1h-17V77.9c0-3.8-0.1-6.2-0.4-7c-0.3-0.8-1-1.3-2.1-1.3c-1.2,0-2,0.5-2.3,1.5
		c-0.3,1-0.5,3.5-0.5,7.8v37.7h-17V60.8H506.4z"/>
	<path class="st1" d="M572.6,89.7h-22v12.1c0,2.5,0.2,4.1,0.5,4.9c0.4,0.7,1.1,1.1,2.1,1.1c1.3,0,2.2-0.5,2.6-1.4
		c0.4-1,0.7-2.8,0.7-5.6v-7.4h16.1v4.1c0,3.4-0.2,6.1-0.7,7.9c-0.4,1.9-1.5,3.8-3,5.9c-1.6,2.1-3.6,3.7-6.1,4.7
		c-2.5,1.1-5.5,1.6-9.2,1.6c-3.6,0-6.8-0.5-9.5-1.6c-2.7-1-4.9-2.5-6.4-4.3c-1.5-1.8-2.6-3.8-3.2-6c-0.6-2.2-0.9-5.3-0.9-9.5V80
		c0-4.9,0.7-8.7,2-11.5c1.3-2.8,3.5-5,6.5-6.5c3-1.5,6.4-2.3,10.3-2.3c4.8,0,8.7,0.9,11.8,2.7c3.1,1.8,5.3,4.2,6.5,7.2
		c1.2,3,1.9,7.2,1.9,12.6V89.7z M555.6,80.6v-4.1c0-2.9-0.2-4.7-0.5-5.6c-0.3-0.8-0.9-1.3-1.9-1.3c-1.2,0-1.9,0.4-2.2,1.1
		c-0.3,0.7-0.4,2.6-0.4,5.8v4.1H555.6z"/>
	<path class="st1" d="M595.1,60.8l-0.7,7.3c2.5-5.3,6-8,10.7-8.3v19.6c-3.1,0-5.4,0.4-6.8,1.3c-1.5,0.8-2.4,2-2.7,3.5
		c-0.3,1.5-0.5,5-0.5,10.4v22h-17V60.8H595.1z"/>
</g>
<path class="st1" d="M132.6,77c-4.7-5.8-12-9.9-21.9-12.3c6.5-2.3,11.5-5.3,14.9-9.2c5.1-5.8,7.6-12.9,7.6-21
	c0-9.7-3.6-17.9-10.7-24.5C115.4,3.3,105.1,0,91.8,0h-80v23.2H56c13.3,0,23.6,3.3,30.7,9.9c7.1,6.6,10.7,14.8,10.7,24.5
	c0,8.2-2.5,15.2-7.6,21c-3.4,3.9-8.4,7-14.9,9.2c9.9,2.4,17.3,6.5,21.9,12.3c4.7,5.8,7,13.1,7,21.9c0,5.3-0.9,10.2-2.7,14.7
	c1.2-0.1,2.4-0.3,3.7-0.5c7.2-0.9,12.6-2.5,16.2-4.5c5.8-3.3,10.3-7.9,13.7-13.6c3.3-5.7,5-12.2,5-19.3
	C139.6,90.2,137.3,82.9,132.6,77z"/>
<g>
	<path class="st0" d="M64.9,92.1c-18.3,0.2-33,15.2-32.8,33.5c0.2,18.3,15.2,33,33.5,32.8c18.3-0.2,33-15.2,32.8-33.5
		C98.2,106.6,83.2,91.9,64.9,92.1z M65.5,152.3c-14.9,0.2-27.1-11.8-27.3-26.7C38.1,110.6,50,98.4,64.9,98.3
		c14.9-0.2,27.1,11.8,27.3,26.7C92.4,139.9,80.4,152.1,65.5,152.3z"/>
	<path class="st0" d="M56.9,110.4c0-4.6,3.8-8.4,8.4-8.4c4.6,0,8.4,3.8,8.4,8.4c0,4.6-3.8,8.4-8.4,8.4
		C60.7,118.8,56.9,115.1,56.9,110.4z"/>
	<path class="st0" d="M56.9,139.9c0-4.6,3.8-8.4,8.4-8.4c4.6,0,8.4,3.8,8.4,8.4s-3.8,8.4-8.4,8.4C60.7,148.3,56.9,144.5,56.9,139.9z
		"/>
	<path class="st0" d="M71.9,124c0-4.6,3.8-8.4,8.4-8.4c4.6,0,8.4,3.8,8.4,8.4c0,4.6-3.8,8.4-8.4,8.4C75.6,132.4,71.9,128.7,71.9,124
		z"/>
	<path class="st0" d="M41.5,124c0-4.6,3.8-8.4,8.4-8.4c4.6,0,8.4,3.8,8.4,8.4c0,4.6-3.8,8.4-8.4,8.4C45.2,132.4,41.5,128.7,41.5,124
		z"/>
</g>
<path class="st0" d="M71.6,197.9C32.1,197.9,0,165.9,0,126.3c0-39.6,32.1-71.6,71.6-71.6l0,24.4c-26.1,0-47.2,21.2-47.2,47.2
	c0,26.1,21.1,47.2,47.2,47.2L71.6,197.9z"/>
<path class="st0" d="M379.1,162.6"/>
</svg>
