<?xml version="1.0" encoding="utf-8"?>
<!-- Generator: Adobe Illustrator 21.1.0, SVG Export Plug-In . SVG Version: 6.00 Build 0)  -->
<svg version="1.1" id="Capa_1" xmlns="http://www.w3.org/2000/svg" xmlns:xlink="http://www.w3.org/1999/xlink" x="0px" y="0px"
	 viewBox="0 0 555 156.75" style="enable-background:new 0 0 555 156.75;" xml:space="preserve">
<style type="text/css">
	.st0{fill:#153345;stroke:#FFFFFF;stroke-width:2;stroke-miterlimit:10;}
	.st1{fill:#0AC8D3;stroke:#FFFFFF;stroke-width:2;stroke-miterlimit:10;}
</style>
<g>
	<path class="st0" d="M148.643,124.34c0-4.971,0-9.669,0-14.573c1.38-0.086,2.595-0.161,4.083-0.254c0-10.139,0-20.298,0-30.61
		c-1.081-0.801-2.566,0.088-4.073-0.681c0-4.622,0-9.4,0-14.519c11.742,0,23.454,0.012,35.165-0.013
		c1.742-0.004,1.835,1.335,2.264,2.456c2.532,6.618,5.068,13.235,7.824,20.431c2.724-6.939,5.376-13.326,7.707-19.829
		c0.863-2.406,2.02-3.152,4.56-3.116c10.967,0.156,21.937,0.067,33.094,0.067c0,4.986,0,9.673,0,14.329
		c-1.275,1.063-2.772,0.193-4.269,0.886c0,9.986,0,20.166,0,30.627c4.523-0.885,5.046,1.685,4.733,5.33
		c-0.264,3.078-0.054,6.196-0.054,9.474c-10.76,0-21.186,0-31.787,0c0-4.805,0-9.504,0-14.225c1.25-1.108,2.943,0.033,4.394-0.916
		c0-9.876,0-19.831,0-29.785c-0.158-0.062-0.316-0.124-0.474-0.187c-1.57,4.058-3.161,8.108-4.705,12.176
		c-3.797,10.002-7.667,19.978-11.287,30.044c-0.867,2.409-1.945,3.225-4.511,3.149c-6.157-0.182-6.148-0.04-8.311-5.793
		c-4.769-12.684-9.551-25.364-14.338-38.041c-0.166-0.439-0.442-0.837-1.02-1.913c0,10.57,0,20.42,0,30.578
		c4.787-0.728,4.986,2.244,4.733,5.825c-0.208,2.955-0.043,5.936-0.043,9.083C164.294,124.34,156.603,124.34,148.643,124.34z"/>
	<path class="st0" d="M140.449,68.723c0.63,25.765-21.844,48.916-49.388,48.7C63.795,117.21,41.614,94.606,42.007,67.78
		c0.365-24.934,20.231-51.211,53.744-48.778C118.855,20.68,140.239,39.017,140.449,68.723z M62.288,93.688
		c4.068,5.846,9.726,9.328,16.523,11.118c1.489,0.373,2.978,0.746,4.466,1.12c5.511,1.966,11.006,2.16,16.478-0.152
		c1.277-0.304,2.555-0.609,3.832-0.913c6.843-1.526,12.379-5.023,16.371-10.85c11.019-11.873,12.998-25.714,7.276-40.279
		c-5.906-15.034-17.775-23.519-33.856-24.298c-16.545-0.801-29.438,6.714-36.779,21.624C49.158,66.171,51.884,80.61,62.288,93.688z"
		/>
	<path class="st0" d="M245.424,111.047c1.56,0,3.028,0,4.785,0c0-11.202,0-22.237,0-33.614c-1.417-0.074-2.983-0.156-4.842-0.253
		c0-4.364,0-8.752,0-13.314c8.994,0,17.945,0,27.26,0c0,13.543,0,27.083,0,40.925c4.053-4.294,7.791-8.255,11.231-11.9
		c-1.075,0-3.118,0-5.381,0c0-3.741,0-7.162,0-10.972c8.517,0,16.97-0.003,25.423,0.003c1.431,0.001,1.955,0.826,1.947,2.166
		c-0.018,3.101-0.006,6.203-0.006,9.249c-6.306,1.047-6.933,1.457-12.66,8.282c4.464,2.79,6.041,9.16,12.653,9.616
		c0,4.176,0,8.502,0,13.283c-5.062,0-10.129,0.015-15.196-0.009c-1.454-0.007-2-1.309-2.832-2.179
		c-4.789-5.004-9.572-10.013-14.951-15.643c0,6.379,0,11.911,0,17.637c-9.286,0-18.224,0-27.431,0
		C245.424,120.007,245.424,115.616,245.424,111.047z"/>
	<path class="st0" d="M435.144,106.443c0,3.862,0,6.67,0,9.479c0,2.728,0,5.456,0,8.394c-9.248,0-18.28,0-27.454,0
		c0-4.489,0-8.8,0-13.202c1.772-0.121,3.355-0.229,5.117-0.349c0-11.098,0-22.04,0-33.025c-1.599-1.044-3.481,0.059-5.225-0.85
		c0-4.224,0-8.526,0-13.011c9.129,0,18.075,0,27.344,0c0,13.501,0,27.039,0,40.356c3.752-4.017,7.477-8.006,11.202-11.994
		c0.411,0.247,0.823,0.494,1.234,0.741c-2.002-0.097-4.005-0.193-6.212-0.3c0-3.578,0-6.994,0-10.593c8.96,0,17.758,0,26.784,0
		c0,3.856,0,7.542,0,11.579c-6.266-1.105-8.281,4.548-12.17,7.411c4.862,6.668,8.424,9.585,12.593,10.243
		c0,3.562,0.012,7.168-0.01,10.773c-0.004,0.728-0.136,1.455-0.233,2.431c-4.849,0-9.578-0.067-14.303,0.036
		c-1.674,0.037-2.429-1.067-3.352-2.033C445.586,117.434,440.732,112.319,435.144,106.443z"/>
	<path class="st0" d="M385.276,66.812c0.155-1.153,0.266-1.974,0.398-2.956c4.564,0,9.132,0,13.89,0c0,5.668,0,11.237,0,17.336
		c-4.147,0-8.328-0.033-12.507,0.017c-1.557,0.019-1.674-1.249-2.162-2.172c-1.658-3.139-4.078-4.913-7.782-4.817
		c-1.936,0.051-3.531,0.457-4.039,2.528c-0.521,2.124,0.507,3.524,2.368,4.497c5.942,3.107,12.004,6.016,17.75,9.453
		c5.601,3.349,8.612,8.626,8.835,15.203c0.357,10.565-7.518,18.816-18.12,19.385c-5.651,0.303-10.827-1.073-15.548-3.947
		c-1.169,0.892-0.348,2.087-1.035,3.015c-4.332,0-8.777,0-13.373,0c0-6.485,0-12.796,0-19.515c4.087,0,8.049,0.081,12.006-0.035
		c1.893-0.055,2.12,1.26,2.723,2.49c1.99,4.056,4.888,5.699,8.987,5.297c1.596-0.156,2.943-0.609,3.477-2.314
		c0.543-1.735,0.097-3.243-1.253-4.394c-2.111-1.8-4.675-2.824-7.166-3.963c-3.973-1.816-7.977-3.587-11.56-6.123
		c-6.758-4.784-9.496-12.915-7.096-20.867c2.097-6.947,9.179-11.772,17.278-12.013C376.351,62.769,380.939,63.926,385.276,66.812z"
		/>
	<path class="st0" d="M508.448,100.04c-0.138-3.699,0.317-7.043-3.452-8.819c-4.014-1.891-7.821-1.653-11.153,1.26
		c-1.386,1.212-2.661,1.56-4.377,1.368c-4.699-0.527-9.41-0.946-14.536-1.449c1.961-4.803,5.138-7.884,9.569-9.174
		c12.393-3.607,24.923-3.547,37.278,0.085c5.2,1.528,8.357,5.476,8.562,11.103c0.195,5.349,0.042,10.711,0.042,15.767
		c2.004,1.287,3.733,0.366,5.493,1.074c0,4.18,0,8.483,0,13.268c-8.691,0-17.388-0.057-26.082,0.046
		c-1.821,0.022-0.944-1.702-1.901-2.268c-6.893,3.199-14.119,3.868-21.511,2.212c-6.224-1.394-10.535-5.951-10.996-11.27
		c-0.513-5.921,2.561-10.407,9.157-13.008c6.876-2.712,13.928-2.413,21.005-0.861C506.392,99.558,507.234,99.76,508.448,100.04z
		 M508.441,109.881c0.003-4.305-1.143-5.383-5.766-5.43c-3.754-0.038-6.116,2.028-6.173,5.396c-0.06,3.566,2.046,5.608,5.826,5.651
		C507.108,115.551,508.439,114.329,508.441,109.881z"/>
	<path class="st0" d="M338.057,64.955c0,5.972,0,11.286,0,16.877c2.835,0,5.406,0,8.308,0c0,4.66,0,9.044,0,13.709
		c-2.64,0-5.229,0-8.112,0c0,4.195-0.11,8.133,0.045,12.06c0.08,2.022,1.656,2.689,3.477,2.487c1.469-0.163,2.911-0.573,4.911-0.986
		c0,4.063-0.02,7.969,0.013,11.875c0.009,1.079-0.639,1.588-1.467,1.925c-6.859,2.79-13.79,4.214-21.038,1.347
		c-6.026-2.384-8.312-7.11-8.426-13.184c-0.094-4.976-0.019-9.956-0.019-14.809c-1.679-1.161-3.431-0.172-5.151-1.014
		c0-4.179,0-8.475,0-12.855c1.397-1.051,3.135-0.076,4.667-0.668c0.112-0.166,0.4-0.402,0.364-0.569
		c-1.008-4.732,1.653-6.769,5.594-8.39C326.709,70.501,332.008,67.787,338.057,64.955z"/>
	<path class="st0" d="M46.986,99.287c4.178,5.067,8.234,9.599,12.907,12.821c-9.451,9.739-18.66,19.372-28.058,28.819
		c-2.631,2.645-6.088,3.502-9.542,1.395c-4.646-2.834-6.561-6.866-5.561-11.233c0.156-0.68,0.591-1.361,1.064-1.893
		C26.928,118.917,37.031,109.594,46.986,99.287z"/>
	<path class="st1" d="M83.277,105.925c0.065-16.718,0.13-33.436,0.193-50.154c0.006-1.47,0.001-2.939,0.001-4.772
		c4.844,0,9.302-0.063,13.758,0.024c2.64,0.052,2.281,2.117,2.283,3.846c0.019,15.351,0.028,30.702,0.057,46.053
		c0.003,1.617,0.121,3.234,0.185,4.851C94.283,108.085,88.788,107.891,83.277,105.925z"/>
	<path class="st1" d="M103.587,104.861c0-14.063,0-28.126,0-42.405c5.447,0,10.509,0,16.371,0c0,10.493,0,21.024,0,31.555
		C115.966,99.837,110.43,103.335,103.587,104.861z"/>
	<path class="st1" d="M62.288,93.688c1.236-1.114,0.647-2.576,0.654-3.875c0.049-9.071,0.026-18.142,0.026-27.392
		c5.305,0,10.253,0,15.844,0c0,14.082,0,28.233,0,42.384C72.014,103.016,66.355,99.534,62.288,93.688z"/>
</g>
</svg>
