<?xml version="1.0" encoding="utf-8"?>
<!-- Generator: Adobe Illustrator 21.1.0, SVG Export Plug-In . SVG Version: 6.00 Build 0)  -->
<svg version="1.1" id="Capa_1" xmlns="http://www.w3.org/2000/svg" xmlns:xlink="http://www.w3.org/1999/xlink" x="0px" y="0px"
	 viewBox="0 0 126 126.7" style="enable-background:new 0 0 126 126.7;" xml:space="preserve">
<style type="text/css">
	.st0{fill:#153345;stroke:#FFFFFF;stroke-width:2;stroke-miterlimit:10;}
	.st1{fill:#0AC8D3;stroke:#FFFFFF;stroke-width:2;stroke-miterlimit:10;}
</style>
<g>
	<path class="st0" d="M125,50.9c0.6,25.8-21.8,48.9-49.4,48.7c-27.3-0.2-49.4-22.8-49.1-49.6C26.9,25,46.8-1.3,80.3,1.2
		C103.4,2.8,124.8,21.2,125,50.9z M46.8,75.8c4.1,5.8,9.7,9.3,16.5,11.1c1.5,0.4,3,0.7,4.5,1.1c5.5,2,11,2.2,16.5-0.2
		c1.3-0.3,2.6-0.6,3.8-0.9c6.8-1.5,12.4-5,16.4-10.8c11-11.9,13-25.7,7.3-40.3c-5.9-15-17.8-23.5-33.9-24.3
		c-16.5-0.8-29.4,6.7-36.8,21.6C33.7,48.3,36.4,62.8,46.8,75.8z"/>
	<path class="st0" d="M31.5,81.4c4.2,5.1,8.2,9.6,12.9,12.8c-9.5,9.7-18.7,19.4-28.1,28.8c-2.6,2.6-6.1,3.5-9.5,1.4
		c-4.6-2.8-6.6-6.9-5.6-11.2c0.2-0.7,0.6-1.4,1.1-1.9C11.5,101.1,21.6,91.7,31.5,81.4z"/>
	<path class="st1" d="M67.8,88.1c0.1-16.7,0.1-33.4,0.2-50.2c0-1.5,0-2.9,0-4.8c4.8,0,9.3-0.1,13.8,0c2.6,0.1,2.3,2.1,2.3,3.8
		c0,15.4,0,30.7,0.1,46.1c0,1.6,0.1,3.2,0.2,4.9C78.8,90.2,73.3,90,67.8,88.1z"/>
	<path class="st1" d="M88.1,87c0-14.1,0-28.1,0-42.4c5.4,0,10.5,0,16.4,0c0,10.5,0,21,0,31.6C100.5,82,95,85.5,88.1,87z"/>
	<path class="st1" d="M46.8,75.8c1.2-1.1,0.6-2.6,0.7-3.9c0-9.1,0-18.1,0-27.4c5.3,0,10.3,0,15.8,0c0,14.1,0,28.2,0,42.4
		C56.5,85.2,50.9,81.7,46.8,75.8z"/>
</g>
</svg>
